<?xml version="1.0" encoding="utf-8" ?>
<svg xmlns="http://www.w3.org/2000/svg" xmlns:xlink="http://www.w3.org/1999/xlink" width="888" height="710">
	<path fill="#FEFEFE" transform="matrix(0.69375 0 0 0.693359 0 3.05176e-05)" d="M0 0L1278.91 0C1280.3 2.44878 1279.99 5.15956 1280 7.90141L1280.01 807.041L1280 969.618C1280 976.707 1280.96 1018.64 1279.61 1022.62C1279.43 1023.14 1279.19 1023.51 1278.91 1024L0 1024L0 0Z"/>
	<path fill="#7358F9" transform="matrix(0.69375 0 0 0.693359 0 3.05176e-05)" d="M333.083 176.176C334.502 176.933 334.697 177.111 335.54 178.481C335.49 180.238 334.782 180.991 333.736 182.29C332.285 181.586 331.462 181.213 330.658 179.721C331.125 177.828 331.71 177.504 333.083 176.176Z"/>
	<path fill="#7358F9" transform="matrix(0.69375 0 0 0.693359 0 3.05176e-05)" d="M933.788 856.28C935.385 858.99 937.097 859.094 939.87 860.079C940.822 861.654 940.597 861.98 940.401 863.753C937.837 862.925 934.844 862.429 933.019 860.34C932.561 858.355 932.95 858.071 933.788 856.28Z"/>
	<path fill="#7358F9" transform="matrix(0.69375 0 0 0.693359 0 3.05176e-05)" d="M801.19 371.813C801.33 371.822 801.47 371.826 801.609 371.84C803.434 372.022 804.263 372.109 805.414 373.546C805.313 375.564 804.198 376.875 803.091 378.487C802.913 378.455 802.734 378.431 802.558 378.391C800.773 377.979 799.876 377.525 798.873 376.024C799.217 373.965 799.896 373.407 801.19 371.813Z"/>
	<path fill="#7358F9" transform="matrix(0.69375 0 0 0.693359 0 3.05176e-05)" d="M705.03 365.65C707.423 365.62 709.485 365.653 711.433 367.174C712.198 369.197 712.069 369.513 711.65 371.542C709.163 371.454 706.99 371.058 705.076 369.417C704.466 367.616 704.497 367.483 705.03 365.65Z"/>
	<path fill="#7358F9" transform="matrix(0.69375 0 0 0.693359 0 3.05176e-05)" d="M952.457 863.215C956.091 863.975 961.697 863.679 964.892 865.269L964.874 866.731C961.514 867.393 957.203 867.932 953.948 866.722C952.408 865.296 952.607 865.203 952.457 863.215Z"/>
	<path fill="#7358F9" transform="matrix(0.69375 0 0 0.693359 0 3.05176e-05)" d="M939.522 832.736Q941.964 833.673 944.387 834.659C947.687 836.01 949.823 836.739 951.233 840.124C947.948 839.656 941.891 838.477 939.752 835.762C939.078 834.907 939.446 833.785 939.522 832.736Z"/>
	<path fill="#7358F9" transform="matrix(0.69375 0 0 0.693359 0 3.05176e-05)" d="M779.925 387.563C781.146 387.452 782.586 387.205 783.776 387.551C785.077 387.928 785.093 388.225 785.627 389.36C785.106 391.404 784.087 392.295 782.586 393.723L780.624 394.187C779.103 393.635 779.119 393.654 778.307 392.256C778.218 390.154 778.692 389.237 779.925 387.563Z"/>
	<path fill="#7358F9" transform="matrix(0.69375 0 0 0.693359 0 3.05176e-05)" d="M930.081 867.038L933.369 867.238C932.779 868.164 933.029 867.819 932.373 868.666L931.917 869.246C934.103 871.712 937.571 873.096 940.141 875.28C939.247 875.956 938.398 876.427 937.248 876.498C935.485 876.607 933.95 876.154 932.681 874.899C930.206 872.455 929.998 870.357 930.081 867.038Z"/>
	<path fill="#7358F9" transform="matrix(0.69375 0 0 0.693359 0 3.05176e-05)" d="M915.624 918.329C918.877 918.248 925.417 918.501 927.951 920.605L927.973 922.473C924.915 922.66 919.258 923.641 916.743 921.7C915.556 920.784 915.774 919.709 915.624 918.329Z"/>
	<path fill="#7358F9" transform="matrix(0.69375 0 0 0.693359 0 3.05176e-05)" d="M469.074 569.778C470.498 569.688 471.174 569.596 472.46 570.334C472.588 571.504 472.555 571.514 471.888 572.428C470.394 574.478 468.331 574.607 465.994 574.949C464.282 574.54 462.866 574.199 461.734 572.756L462.16 571.613C464.437 570.01 466.406 569.949 469.074 569.778Z"/>
	<path fill="#7358F9" transform="matrix(0.69375 0 0 0.693359 0 3.05176e-05)" d="M954.279 843.392C957.633 843.461 966.029 842.616 968.503 844.381L968.596 846.014C964.468 846.655 960.176 847.69 956.034 846.813C954.526 845.542 954.655 845.253 954.279 843.392Z"/>
	<path fill="#7358F9" transform="matrix(0.69375 0 0 0.693359 0 3.05176e-05)" d="M766.071 402.841C766.863 403.21 767.89 403.75 768.493 404.38C769.112 405.026 769.435 405.975 769.418 406.844C769.371 409.326 767.287 410.998 765.588 412.511C764.876 412.294 764.016 412.078 763.385 411.679C762.092 410.861 762.025 409.981 761.877 408.584C762.787 406.15 764.317 404.681 766.071 402.841Z"/>
	<path fill="#7358F9" transform="matrix(0.69375 0 0 0.693359 0 3.05176e-05)" d="M512.315 360.077C513.355 360.318 514.806 360.619 515.623 361.354C516.683 362.307 517.26 363.624 517.176 365.044C517.057 367.052 515.775 368.31 514.424 369.64C513.525 368.963 512.624 368.281 511.777 367.538C510.227 366.176 509.507 364.984 509.404 362.934C510.241 361.266 510.782 361.063 512.315 360.077Z"/>
	<path fill="#7358F9" transform="matrix(0.69375 0 0 0.693359 0 3.05176e-05)" d="M549.694 424.725C551.518 425.033 552.971 425.37 554.287 426.762C555.224 427.753 556.006 428.988 555.849 430.41C555.628 432.413 554.8 433.012 553.436 434.288C552.346 434.017 551.023 433.653 550.086 433.009C548.768 432.106 547.99 430.828 547.804 429.259C547.584 427.406 548.617 426.098 549.694 424.725Z"/>
	<path fill="#7358F9" transform="matrix(0.69375 0 0 0.693359 0 3.05176e-05)" d="M600.747 417.66C604.17 417.59 607.817 417.06 610.71 419.192C611.526 420.99 611.247 421.461 610.902 423.355C607.549 423.675 604 424.232 601.167 422.098C600.363 420.241 600.539 419.626 600.747 417.66Z"/>
	<path fill="#7358F9" transform="matrix(0.69375 0 0 0.693359 0 3.05176e-05)" d="M734.349 572.016C736.258 572.319 736.841 572.334 738.41 573.548C738.858 574.812 739.181 575.387 738.877 576.737C738.419 578.768 736.985 579.923 735.33 581.007C733.631 580.372 731.866 579.649 730.83 578.059C729.985 576.761 730.067 575.971 730.359 574.525C731.577 572.95 732.472 572.602 734.349 572.016Z"/>
	<path fill="#7358F9" transform="matrix(0.69375 0 0 0.693359 0 3.05176e-05)" d="M750.579 422.547C751.738 422.883 752.669 423.337 753.732 423.891C754.18 424.743 754.606 425.167 754.521 426.161C754.288 428.871 750.815 431.161 748.854 432.731C747.54 432.306 746.984 431.846 746.004 430.929C745.729 429.933 745.433 429.398 745.653 428.359C746.208 425.74 748.5 423.967 750.579 422.547Z"/>
	<path fill="#7358F9" transform="matrix(0.69375 0 0 0.693359 0 3.05176e-05)" d="M594.748 355.949C595.608 356.148 596.409 356.4 597.184 356.827C598.801 357.719 600.322 359.532 600.727 361.359C601.243 363.684 600.728 365.259 599.529 367.242C598.446 367.1 597.461 366.973 596.492 366.434C595.061 365.638 593.878 364.174 593.449 362.589C592.753 360.02 593.447 358.156 594.748 355.949Z"/>
	<path fill="#7358F9" transform="matrix(0.69375 0 0 0.693359 0 3.05176e-05)" d="M848.665 586.348C852.515 586.271 859.194 585.945 862.262 588.478L862.326 589.479L861.153 590.724C858.235 591.196 855.085 591.411 852.129 591.354C850.342 591.32 848.901 591.049 847.637 589.735C847.464 588.027 847.814 587.785 848.665 586.348Z"/>
	<path fill="#7358F9" transform="matrix(0.69375 0 0 0.693359 0 3.05176e-05)" d="M752.59 579.351C754.121 579.252 755.629 579.287 757.161 579.366C760.002 579.512 761.923 579.631 763.911 581.849C764.388 583.973 764.168 584.501 763.501 586.607C760.465 586.469 754.901 586.004 752.928 583.427C751.821 581.982 752.275 580.962 752.59 579.351Z"/>
	<path fill="#7358F9" transform="matrix(0.69375 0 0 0.693359 0 3.05176e-05)" d="M534.416 402.198C534.587 402.263 534.765 402.312 534.929 402.391C537.85 403.799 541.042 407.513 542.297 410.469C542.167 412.55 542.029 412.525 540.687 413.967C538.416 413.402 536.76 412.879 534.966 411.312C533.532 410.059 532.208 408.34 532.234 406.332C532.258 404.394 533.245 403.565 534.416 402.198Z"/>
	<path fill="#7358F9" transform="matrix(0.69375 0 0 0.693359 0 3.05176e-05)" d="M868.229 860.567L869.388 860.831L869.98 861.924C869.906 862.138 869.842 862.354 869.76 862.564C867.964 867.174 856.495 875.729 852.031 877.857L851.938 878.545L851.526 878.337C853.11 872.28 863.525 864.861 868.229 860.567Z"/>
	<path fill="#7358F9" transform="matrix(0.69375 0 0 0.693359 0 3.05176e-05)" d="M783.042 583.305C787.032 583.311 793.424 582.633 796.454 585.563C796.847 587.522 796.61 587.758 795.845 589.523C791.66 589.535 786.204 589.811 782.778 587.121C782.045 585.195 782.313 585.136 783.042 583.305Z"/>
	<path fill="#7358F9" transform="matrix(0.69375 0 0 0.693359 0 3.05176e-05)" d="M816.874 587.176C821.062 586.738 831.021 585.865 834.386 588.299C834.545 589.652 834.399 589.651 833.624 590.8C829.226 591.764 821.266 592.812 817.273 590.584C816.374 589.006 816.562 588.885 816.874 587.176Z"/>
	<path fill="#7358F9" transform="matrix(0.69375 0 0 0.693359 0 3.05176e-05)" d="M964.305 910.831C965.036 911.475 964.859 911.533 964.969 912.451C960.216 917.793 948.564 921.626 941.479 922.333C940.934 921.231 940.948 921.256 941.249 920.062C946.102 916.924 958.358 913.254 964.305 910.831Z"/>
	<path fill="#7358F9" transform="matrix(0.69375 0 0 0.693359 0 3.05176e-05)" d="M636.676 716.903C638.321 717.48 639.824 718.248 640.859 719.695C642.078 721.401 642.659 723.454 642.276 725.534C641.831 727.957 640.662 728.633 638.795 729.969C637.476 729.516 635.808 729.059 634.877 727.966C633.796 726.696 633.255 724.653 633.399 723.014C633.643 720.219 634.586 718.713 636.676 716.903Z"/>
	<path fill="#7358F9" transform="matrix(0.69375 0 0 0.693359 0 3.05176e-05)" d="M305.499 161.68C306.99 162.229 308.087 162.375 308.855 163.904C310.766 167.71 312.705 176.529 311.21 180.558C310.129 180.423 309.298 180.182 308.288 179.772C306.826 177.897 306.065 175.678 305.432 173.404C304.436 169.825 303.585 164.995 305.499 161.68Z"/>
	<path fill="#7358F9" transform="matrix(0.69375 0 0 0.693359 0 3.05176e-05)" d="M635.339 746.711L638.093 747.749C639.357 749.147 639.595 751.15 639.89 752.961C640.427 756.25 640.471 762.204 638.473 764.999C637.948 764.879 637.642 764.832 637.164 764.659C635.895 764.2 634.931 763.162 634.422 761.925C632.761 757.881 633.595 750.613 635.339 746.711Z"/>
	<path fill="#7358F9" transform="matrix(0.69375 0 0 0.693359 0 3.05176e-05)" d="M155.635 733.566C159.018 733.312 166.657 731.95 169.198 734.126C169.877 735.672 170.012 735.607 169.442 737.171C168.066 738.129 167.339 738.518 165.649 738.576C161.712 738.134 160.175 739.355 156.535 740.388C154.762 739.844 154.641 739.758 153.482 738.308C153.158 736.709 153.173 735.994 153.642 734.431L155.635 733.566Z"/>
	<path fill="#7358F9" transform="matrix(0.69375 0 0 0.693359 0 3.05176e-05)" d="M274.523 213.585C279.608 213.426 285.783 213.706 290.332 216.078C291.617 217.874 291.346 218.594 291.342 220.756C286.093 220.486 279.886 220.891 275.225 218.211C274.13 216.352 274.394 215.692 274.523 213.585Z"/>
	<path fill="#7358F9" transform="matrix(0.69375 0 0 0.693359 0 3.05176e-05)" d="M584.711 314.205C585.861 314.237 586.937 314.42 588.069 314.608C588.85 315.304 589.317 315.86 589.791 316.81C591.891 321.01 592.833 327.478 591.322 332.001C591.072 332.008 590.821 332.027 590.57 332.023C589.303 332.003 588.317 331.755 587.484 330.771C584.5 327.247 584.446 318.633 584.711 314.205Z"/>
	<path fill="#7358F9" transform="matrix(0.69375 0 0 0.693359 0 3.05176e-05)" d="M522.609 566.374C527.06 566.16 534.352 564.638 537.897 567.684C538.725 569.39 538.589 570.331 538.274 572.173Q537.084 572.462 535.874 572.647C531.621 573.324 526.787 573.338 523.211 570.725C522.174 568.914 522.426 568.4 522.609 566.374Z"/>
	<path fill="#7358F9" transform="matrix(0.69375 0 0 0.693359 0 3.05176e-05)" d="M600.316 384.795C601.379 384.911 602.101 384.955 603.067 385.459C604.431 386.17 605.171 388.497 605.542 389.884C606.702 394.229 606.224 398.736 603.928 402.595L601.834 401.62C599.343 398.769 598.657 394.196 598.447 390.52C598.284 387.653 598.439 386.897 600.316 384.795Z"/>
	<path fill="#7358F9" transform="matrix(0.69375 0 0 0.693359 0 3.05176e-05)" d="M699.157 388.806L702.285 389.019C703.204 389.766 703.467 389.894 703.68 391.121C704.4 395.252 702.078 401.817 699.68 405.174C698.451 404.984 697.437 404.684 696.276 404.268C695.534 403.388 694.932 402.694 694.747 401.525C694.118 397.543 696.745 391.909 699.157 388.806Z"/>
	<path fill="#7358F9" transform="matrix(0.69375 0 0 0.693359 0 3.05176e-05)" d="M495.44 568.56C499.102 568.463 507.13 567.424 509.938 569.716C510.318 571.21 510.242 571.221 509.591 572.635C508.148 573.856 506.994 573.803 505.156 573.882C500.997 573.921 495.756 574.472 491.745 573.452C490.212 573.062 489.597 572.771 488.829 571.402L489.536 569.758C491.317 568.349 493.275 568.594 495.44 568.56Z"/>
	<path fill="#7358F9" transform="matrix(0.69375 0 0 0.693359 0 3.05176e-05)" d="M275.338 180.949C278.735 181.408 289.51 186.022 291.421 188.964C292.481 190.595 292.136 191.605 291.818 193.359C290.699 193.418 289.542 193.375 288.46 193.062C284.605 191.949 276.356 188.819 274.695 185.048C274.071 183.629 274.88 182.325 275.338 180.949Z"/>
	<path fill="#7358F9" transform="matrix(0.69375 0 0 0.693359 0 3.05176e-05)" d="M516.248 374.233C517.096 374.371 517.942 374.543 518.76 374.809C522.75 376.105 528.334 378.412 530.376 382.29C530.39 384.248 530.075 384.66 529.15 386.32C525.259 386.621 522.699 386.103 519.313 384.066C517.21 382.801 515.326 380.999 514.853 378.488C514.526 376.753 515.294 375.603 516.248 374.233Z"/>
	<path fill="#7358F9" transform="matrix(0.69375 0 0 0.693359 0 3.05176e-05)" d="M960.176 891.539C961.061 891.673 961.451 891.898 962.217 892.329L962.261 893.405C962.067 893.592 961.88 893.786 961.679 893.965C955.706 899.266 936.299 899.663 928.348 899.227C926.895 898.803 926.888 898.792 926.013 897.556L926.285 896.449C929.456 894.565 938.055 896.336 942.127 895.912C948.034 895.298 954.407 893.013 960.176 891.539Z"/>
	<path fill="#7358F9" transform="matrix(0.69375 0 0 0.693359 0 3.05176e-05)" d="M632.94 778.512C633.631 778.699 634.584 778.877 635.192 779.244C636.254 779.885 636.503 780.128 636.699 781.317C637.48 786.054 638.523 806.566 636.175 809.767C635.802 809.654 635.493 809.569 635.123 809.413C633.711 808.817 633.31 808.687 632.759 807.215C630.696 801.7 630.47 783.823 632.94 778.512Z"/>
	<path fill="#7358F9" transform="matrix(0.69375 0 0 0.693359 0 3.05176e-05)" d="M683.075 183.856C691.743 183.031 715.9 190.221 722.238 196.037C723.855 197.52 723.712 198.364 723.754 200.384C718.076 200.169 711.305 194.545 705.818 192.557C698.986 190.08 691.247 189.103 684.158 187.425C682.871 186.22 683.17 185.572 683.075 183.856Z"/>
	<path fill="#7358F9" transform="matrix(0.69375 0 0 0.693359 0 3.05176e-05)" d="M728.415 317.848C729.642 318.271 730.26 318.571 731.152 319.522C731.142 320.106 731.146 320.618 730.975 321.184C729.723 325.323 722.085 346.788 719.956 348.806C719.489 349.249 718.499 349.649 717.917 349.985C716.52 349.036 715.473 348.44 714.804 346.804C716.994 337.695 722.536 325.135 728.415 317.848Z"/>
	<path fill="#7358F9" transform="matrix(0.69375 0 0 0.693359 0 3.05176e-05)" d="M608.836 241.602C613.838 242.326 618.717 250.822 623.124 254.215C630.475 259.874 639.802 259.936 647.355 264.668C648.347 266.231 648.146 266.362 647.891 268.116C647.688 268.117 647.485 268.121 647.281 268.117C636.759 267.943 621.609 260.812 614.317 253.232C611.272 250.067 608.732 246.121 608.836 241.602Z"/>
	<path fill="#7358F9" transform="matrix(0.69375 0 0 0.693359 0 3.05176e-05)" d="M521.049 210.92C521.206 210.903 521.363 210.865 521.521 210.87C523.302 210.92 523.896 211.379 525.146 212.579C525.38 213.533 525.736 213.866 525.181 214.751C522.769 218.594 500.411 221.45 495.155 222.336C495.006 222.364 494.858 222.409 494.707 222.42C492.682 222.578 492.157 222.356 490.564 221.117C490.075 219.522 490.03 219.637 490.791 218.159C496.08 214.147 513.946 211.853 521.049 210.92Z"/>
	<path fill="#7358F9" transform="matrix(0.69375 0 0 0.693359 0 3.05176e-05)" d="M700.408 120.156C704.127 119.905 707.338 120.079 710.738 121.757C714.515 123.622 716.957 126.443 718.324 130.422C719.563 134.025 720.104 139.765 718.142 143.249C717.346 144.662 716.687 144.979 715.2 145.474C713.761 144.818 713.834 144.649 713.138 143.198C712.884 139.036 712.389 133.482 709.919 129.922C706.366 124.8 700.035 131.166 695.444 130.035C694.282 129.749 694.091 129.58 693.472 128.642C693.484 127.978 693.45 127.886 693.67 127.152C694.689 123.747 697.5 121.768 700.408 120.156Z"/>
	<path fill="#7358F9" transform="matrix(0.69375 0 0 0.693359 0 3.05176e-05)" d="M879.035 569.759C879.452 569.786 879.869 569.813 880.283 569.867C884.487 570.423 899.079 583.289 901.993 587.179C903.207 588.799 903.656 589.834 903.407 591.797C898.188 597.683 890.026 602.713 883.512 607.221C881.989 607.767 881.483 608.085 879.862 607.779C879.315 607.091 878.678 606.712 878.79 605.771C879.337 601.172 892.563 592.547 896.347 589.24C891.026 585.167 882.592 580.081 879.058 574.283C878.008 572.561 878.557 571.543 879.035 569.759Z"/>
	<path fill="#7358F9" transform="matrix(0.69375 0 0 0.693359 0 3.05176e-05)" d="M606.177 132.682C612.015 132.352 617.952 134.468 623.101 137.054C626.068 138.545 629.134 140.355 630.192 143.663C629.911 145.077 630.01 145.354 628.941 146.281C623.801 145.781 618.568 140.314 613.103 138.969C607.351 137.553 603.195 138.988 598.334 141.913C591.211 148.355 592.42 158.849 589.422 161.456C588.69 162.093 588.356 161.802 587.456 161.702C586.587 160.907 585.802 160.475 585.489 159.297C584.379 155.125 586.82 147.969 589.075 144.406C593.296 137.737 598.678 134.475 606.177 132.682Z"/>
	<path fill="#7358F9" transform="matrix(0.69375 0 0 0.693359 0 3.05176e-05)" d="M438.001 560.537C439.512 561.189 439.569 561.194 440.37 562.623C439.885 567.199 427.24 577.431 424.115 582.985C431.821 591.216 444.966 594.18 449.469 599.168C449.696 601.071 449.123 601.601 448.227 603.253C439.923 600.628 425.139 594.747 420.562 587.174C419.125 584.796 418.826 582.12 419.672 579.483C421.881 572.601 431.763 563.986 438.001 560.537Z"/>
	<path fill="#7358F9" transform="matrix(0.69375 0 0 0.693359 0 3.05176e-05)" d="M667.291 801.903C667.731 801.913 667.858 801.892 668.336 802.038C669.709 802.457 670.228 802.979 670.836 804.217C670.652 804.855 670.503 805.374 670.096 805.913C667.002 810.004 660.963 812.921 657.06 816.356C651.594 821.166 646.441 826.486 641.188 831.534C639.165 833.478 635.473 838.026 632.812 838.355C627.046 833.968 619.422 822.742 614.515 816.66C613.262 815.155 611.673 813.352 610.894 811.559C610.293 810.178 610.649 809.227 611.118 807.896L612.231 807.721C618.209 810.499 628.923 826.039 633.755 831.73C645.272 821.781 654.341 810.359 667.291 801.903Z"/>
	<path fill="#7358F9" transform="matrix(0.69375 0 0 0.693359 0 3.05176e-05)" d="M746.838 743.501C750.217 743.209 753.701 742.897 757.01 743.863C758.97 744.435 761.007 745.622 761.972 747.496C762.915 749.326 762.714 751.491 762.024 753.367C759.953 758.992 754.173 763.218 748.879 765.516C745.065 766.5 741.744 766.639 738.156 764.711C735.653 763.367 733.789 761.114 733.043 758.36Q732.905 757.851 732.82 757.33Q732.735 756.809 732.704 756.282Q732.673 755.755 732.695 755.228Q732.718 754.7 732.795 754.178Q732.872 753.656 733.001 753.144Q733.131 752.633 733.312 752.137Q733.494 751.641 733.725 751.167Q733.956 750.692 734.234 750.244C737.179 745.479 741.763 744.517 746.838 743.501Z"/>
	<path fill="#FEFEFE" transform="matrix(0.69375 0 0 0.693359 0 3.05176e-05)" d="M753.734 745.728L754.244 745.968C755.933 747.739 756.025 750.875 756.437 753.222C755.544 754.316 754.594 755.338 753.583 756.323C750.356 759.466 747.108 761.09 742.55 761.014C741.323 760.058 739.845 758.889 739.163 757.449C738.556 756.169 738.489 754.741 739.13 753.46C741.061 749.599 749.861 747.226 753.734 745.728Z"/>
	<path fill="#7358F9" transform="matrix(0.69375 0 0 0.693359 0 3.05176e-05)" d="M758.406 219.675C758.879 219.776 759.357 219.862 759.82 219.999C768.653 222.61 781.765 229.308 790.82 233.052C802.526 237.891 814.933 241.771 826.317 247.269C827.7 247.937 828.457 248.391 829.195 249.767C829.334 251.492 829.011 252.253 828.174 253.749C826.175 253.884 824.23 253.973 822.278 253.445C815.196 251.532 807.897 247.728 801.03 244.993C788.802 240.124 776.095 235.696 764.161 230.165C761.231 228.807 757.802 227.638 756.642 224.463C756.822 222.466 757.367 221.375 758.406 219.675Z"/>
	<path fill="#7358F9" transform="matrix(0.69375 0 0 0.693359 0 3.05176e-05)" d="M552.685 166.329C552.873 166.359 553.061 166.382 553.248 166.417C560.757 167.842 573.367 176.497 577.401 182.842C578.114 183.963 578.325 184.124 578 185.435C577.798 185.474 577.6 185.539 577.395 185.552C572.197 185.867 559.077 174.958 554.457 171.599C562.654 185.673 567.118 186.429 581.39 192.06C583.273 192.802 584.873 193.393 585.712 195.309C585.139 196.06 585.127 196.374 584.16 196.624C578.368 198.119 563.285 189.397 557.823 186.475C557.109 186.277 556.381 186.249 555.645 186.177L555.481 187.359C557.923 192.801 568.167 203.06 573.48 205.926C577.24 207.954 581.915 208.552 585.82 210.355C588.041 211.379 590.015 212.679 590.862 215.053L590.202 215.722C589.786 215.685 589.12 215.642 588.681 215.558C575.494 213.037 562.497 204.88 554.871 193.86C552.875 190.975 549.711 186.028 550.394 182.429C551.717 180.989 552.304 181.031 554.159 180.575C554.261 176.928 549.311 174.458 550.131 169.997C550.5 167.984 551.156 167.465 552.685 166.329Z"/>
	<path fill="#7358F9" transform="matrix(0.69375 0 0 0.693359 0 3.05176e-05)" d="M427.841 456.362C430.468 456.513 433.501 456.909 435.971 457.853C438.639 458.873 441.147 461.022 442.253 463.691C443.48 466.654 443.166 469.906 441.85 472.78C439.474 477.967 434.934 481.245 429.756 483.231C427.003 483.632 424.688 483.946 421.988 483.012C419.053 481.996 416.664 480.26 415.349 477.385C413.802 474.003 414.04 469.919 415.467 466.541C417.861 460.879 422.529 458.574 427.841 456.362Z"/>
	<path fill="#FEFEFE" transform="matrix(0.69375 0 0 0.693359 0 3.05176e-05)" d="M430.091 462.071C431.562 462.144 432.944 462.33 434.345 462.818C435.569 463.244 437.006 464.192 437.472 465.475C438.048 467.06 437.863 468.386 437.233 469.898C435.359 474.396 431.892 476.727 427.632 478.573C425.679 478.389 423.623 477.964 421.957 476.881C420.575 475.982 419.568 474.747 419.249 473.102C418.866 471.128 419.576 469.22 420.652 467.584C422.96 464.074 426.165 462.808 430.091 462.071Z"/>
	<path fill="#7358F9" transform="matrix(0.69375 0 0 0.693359 0 3.05176e-05)" d="M457.67 714.609C460.805 714.365 463.931 714.249 466.857 715.587C472.137 718.002 474.258 723.12 476.017 728.252Q475.443 729.905 474.776 731.523C471.943 738.251 466.474 741.798 459.976 744.519C456.498 745.558 451.612 745.785 448.288 744.265C446.013 743.224 444.357 741.364 443.495 739.018C442.011 734.984 442.796 730.269 444.456 726.41C447.107 720.247 451.577 716.972 457.67 714.609Z"/>
	<path fill="#FEFEFE" transform="matrix(0.69375 0 0 0.693359 0 3.05176e-05)" d="M459.101 720.838C460.764 720.947 462.661 721.143 464.241 721.714C466.124 722.393 467.951 723.6 468.754 725.503C469.439 727.124 469.195 728.915 468.516 730.493C466.686 734.748 462.782 736.563 458.746 738.175C456.598 738.502 453.991 739.069 451.887 738.251C450.466 737.698 449.373 736.475 448.91 735.03C448.138 732.616 449.039 729.967 450.217 727.848C452.349 724.011 455.011 722.112 459.101 720.838Z"/>
	<path fill="#7358F9" transform="matrix(0.69375 0 0 0.693359 0 3.05176e-05)" d="M591.47 232.16C591.606 232.22 591.75 232.265 591.879 232.338C593.894 233.48 593.893 239.156 594.592 241.579C597.067 250.161 616.029 262.911 623.534 266.984C641.498 276.735 670.409 282.63 690.567 276.582C704.473 272.409 721.293 264.872 730.855 253.605C733.308 250.715 734.367 245.954 736.303 242.591C737.321 240.822 738.009 240.124 739.983 239.602C741.693 240.166 742.252 240.802 743.31 242.234C743.491 243.833 743.447 243.879 742.625 245.27C737.641 249.931 734.893 257.173 729.039 262.381C712.98 276.669 690.751 285.167 669.263 283.969C645.782 282.66 629.244 278.606 609.968 264.234C604.473 260.137 599.197 256.047 594.645 250.873C591.41 247.196 587.758 242.139 588.226 236.994C588.448 234.545 589.611 233.626 591.47 232.16Z"/>
	<path fill="#7358F9" transform="matrix(0.69375 0 0 0.693359 0 3.05176e-05)" d="M882.43 440.348C887.098 440.043 890.955 440.176 894.742 443.283C897.511 445.556 898.997 448.812 899.336 452.341C899.835 457.54 898.11 463.217 894.674 467.156C889.683 472.879 883.294 473.862 876.112 474.441C871.626 474.114 867.39 473.631 863.641 470.863C860.95 468.876 859.275 466.054 858.82 462.742C858.156 457.899 860.057 452.981 863.09 449.254C868.11 443.085 874.819 441.167 882.43 440.348Z"/>
	<path fill="#FEFEFE" transform="matrix(0.69375 0 0 0.693359 0 3.05176e-05)" d="M879.932 446.511C882.995 446.299 886.114 446.075 888.904 447.632Q889.282 447.839 889.637 448.085Q889.991 448.332 890.317 448.614Q890.643 448.897 890.937 449.213Q891.231 449.529 891.489 449.874Q891.748 450.219 891.968 450.591Q892.188 450.962 892.368 451.354Q892.547 451.747 892.684 452.156Q892.82 452.565 892.912 452.987C893.63 456.163 892.645 459.719 890.865 462.378C887.769 467 883.786 468.479 878.627 469.572C874.965 469.695 871.205 470.132 867.867 468.315C865.728 467.15 864.081 465.353 863.5 462.95C862.821 460.14 863.585 457.14 865.064 454.714C868.385 449.264 874.135 447.75 879.932 446.511Z"/>
	<path fill="#7358F9" transform="matrix(0.69375 0 0 0.693359 0 3.05176e-05)" d="M674.808 97.1002C680.083 96.2459 686.146 96.5473 691.424 97.2803C707.555 99.5207 722.038 107.198 731.922 120.336C739.889 130.926 742.782 143.638 740.877 156.671C739.701 164.715 733.384 184.912 726.59 189.935C724.735 190.316 724.724 190.234 723.024 189.36C721.355 184.719 729.685 172.946 731.497 168.008C732.966 164.003 733.729 159.965 734.328 155.755C734.581 153.438 734.844 151.104 734.922 148.774C735.296 137.609 729.754 126.998 722.133 119.155C711.708 108.427 697.636 103.062 682.746 102.874C663.934 102.637 655.556 110.708 642.898 122.97C641.972 123.138 641.534 123.141 640.593 122.894C639.457 122.596 639.595 122.294 639.057 121.335C639.434 119.233 640.389 117.723 641.705 116.061C650.192 105.336 661.227 98.6014 674.808 97.1002Z"/>
	<path fill="#7358F9" transform="matrix(0.69375 0 0 0.693359 0 3.05176e-05)" d="M1111.11 693.602C1112.04 693.382 1113.07 693.068 1114.03 693.254C1115.36 693.512 1115.49 693.973 1116.25 695.004C1116.62 697.103 1116.31 698.861 1115.74 700.889C1103.83 743.197 1058.26 802.361 1019.61 823.653L1018.12 823.725C1016.65 822.97 1016.44 822.58 1015.53 821.253C1015.49 817.263 1020.43 815.172 1023.47 813.059C1054.38 791.547 1080.7 760.023 1097.21 726.143C1102.19 715.91 1105.62 703.802 1110.79 694.168C1110.9 693.978 1111 693.791 1111.11 693.602Z"/>
	<path fill="#7358F9" transform="matrix(0.69375 0 0 0.693359 0 3.05176e-05)" d="M1005.68 332.677C1011.99 332.138 1018.77 333.584 1025.1 333.946C1031.01 334.282 1037.32 333.904 1043.15 334.766C1044.1 334.906 1044.99 335.226 1045.74 335.843C1047.24 337.085 1047.87 339.05 1047.89 340.944C1047.91 342.897 1047.18 345.064 1045.72 346.412C1041.78 350.049 1028.58 348.05 1023.47 347.733C1031.07 355.757 1040.18 362.299 1048.08 370.031C1051.66 373.526 1061.44 382.386 1061.16 387.273C1061.09 388.535 1060.47 388.604 1059.55 389.362C1058.83 389.949 1058.53 390.148 1057.56 390.26C1055.75 390.47 1052.66 386.573 1051.45 385.292Q1043.23 376.661 1034.38 368.683Q1025.53 360.705 1016.09 353.427C1016.47 359.011 1018.29 368.162 1015.25 372.967C1012.78 374.541 1009.37 374.222 1006.51 373.707C1001.83 368.626 1002.71 354.499 1002.65 347.747C1002.6 342.786 1001.98 336.444 1005.68 332.677Z"/>
	<path fill="#7358F9" transform="matrix(0.69375 0 0 0.693359 0 3.05176e-05)" d="M297.958 316.199C299.988 316.327 300.794 316.622 302.306 317.984C302.953 322.594 297.581 325.585 294.297 328.065C287.752 333.007 280.839 337.827 274.706 343.275C258.242 357.901 241.978 378.592 232.693 398.601C228.823 406.942 226.415 415.875 222.997 424.408C229.118 421.185 236.767 411.634 244.173 412.557C245.915 412.774 247.052 413.56 248.035 414.984C248.768 416.045 249.026 417.344 248.73 418.622C246.99 426.15 227.279 437.45 220.621 441.069C214.659 440.719 211.534 439.872 207.249 435.513C201.866 430.036 193.464 417.335 193.78 409.637C193.848 407.972 194.376 405.976 195.69 404.857C196.782 403.929 197.994 403.584 199.41 403.804C206.159 404.851 212.604 413.47 216.393 418.482C229.896 374.343 259.918 341.384 297.958 316.199Z"/>
	<path fill="#7358F9" transform="matrix(0.69375 0 0 0.693359 0 3.05176e-05)" d="M197.424 617.739C204.379 617.327 211.843 619.254 217.2 623.868C223.248 629.077 225.341 636.329 225.993 644.01C228.893 646.303 231.318 648.941 232.294 652.615C232.821 654.602 232.582 656.551 231.447 658.282C230.056 660.403 228.256 660.55 225.884 660.956C222.478 672.183 218.645 671.086 214.986 677.885C212.65 682.224 221.396 684.218 222.353 688.88C222.769 690.906 222.555 692.782 221.515 694.551C219.765 696.124 217.988 696.422 215.771 696.952C210.725 697.388 198.339 699.537 193.845 697.783C192.399 697.218 191.43 696.313 190.956 694.81C189.51 690.228 194.655 682.864 196.811 679.103C192.055 676.673 182.135 667.562 180.341 662.292C177.97 655.326 178.644 635.428 182.009 628.727C185.364 622.048 190.721 619.877 197.424 617.739Z"/>
	<path fill="#FEFEFE" transform="matrix(0.69375 0 0 0.693359 0 3.05176e-05)" d="M208.768 679.304L209.492 679.509C210.546 682.879 212.672 686.061 214.419 689.128C211.251 689.623 208.071 689.959 204.884 690.303C202.612 690.312 201.025 690.587 199.144 689.234C198.261 686.643 200.265 682.349 201.049 679.713C203.618 679.646 206.201 679.445 208.768 679.304Z"/>
	<path fill="#FEFEFE" transform="matrix(0.69375 0 0 0.693359 0 3.05176e-05)" d="M196.506 622.174C202.489 621.372 212.291 623.492 216.989 627.608C218.297 628.755 218.422 629.487 218.517 631.156C216.659 631.52 214.169 631.787 212.689 633.033C211.623 633.931 210.724 637.57 209.083 637.556C206.842 637.538 206.763 635.767 203.84 636.448L198.83 642.349C193.473 638.216 189.584 637.277 182.926 636.401Q183.237 635.668 183.567 634.944C186.324 628.842 190.131 624.576 196.506 622.174Z"/>
	<path fill="#FEFEFE" transform="matrix(0.69375 0 0 0.693359 0 3.05176e-05)" d="M208.816 638.757C212.427 640.615 214.078 644.159 215.986 647.566C217.526 650.316 220.341 649.505 222.112 651.509C223.255 652.804 223.213 656.386 223.007 658.007C222.3 663.576 218.722 669.002 214.238 672.287C209.851 675.502 205.74 676.478 200.388 675.71C195.884 674.375 192.51 672.4 189.761 668.43C187.328 664.916 186.036 660.563 186.874 656.306C187.873 651.234 191.618 647.72 195.784 645.055C196.571 645.207 197.387 645.357 198.192 645.347C202.703 645.29 205.796 641.624 208.816 638.757Z"/>
	<path fill="#7358F9" transform="matrix(0.69375 0 0 0.693359 0 3.05176e-05)" d="M300.433 614.666C304.451 614.558 308.263 615.39 311.832 617.251C319.801 621.408 324.446 629.455 326.951 637.807C328.752 643.812 331.8 655.396 328.618 661.287C326.755 662.562 324.686 662.362 322.509 662.424C319.082 666.909 316.147 669.244 311.161 671.882L312.769 680.814Q314.227 681.378 315.648 682.031C318.765 683.484 320.091 685.155 321.286 688.341C321.12 689.415 321.249 689.911 320.464 690.728C316.792 694.552 302.3 693.148 297.249 693.153C293.067 692.635 288.28 694.401 284.933 691.463C284.65 689.677 284.615 688.837 285.525 687.215C287.839 683.093 291.947 682.602 296.135 681.497L295.497 673.353C293.331 672.576 290.883 671.828 288.948 670.575C285.95 668.634 283.436 664.078 280.166 662.836C277.62 661.869 274.747 663.74 272.06 662.149C270.424 659.856 270.649 657.554 270.949 654.876C271.508 649.891 273.566 647.849 277.309 644.831C277.562 638.449 279.146 631.796 282.584 626.354C286.714 619.817 293.021 616.292 300.433 614.666Z"/>
	<path fill="#FEFEFE" transform="matrix(0.69375 0 0 0.693359 0 3.05176e-05)" d="M298.538 673.916L303.154 673.94C304.098 673.94 305.204 673.843 306.131 674.046C307.063 674.25 307.875 674.682 308.42 675.466C309.856 677.531 308.818 681.186 308.432 683.501C307.911 683.733 307.654 683.868 307.142 684.037C305.049 684.728 303.01 684.994 300.989 684.058C298.288 681.32 298.678 677.515 298.538 673.916Z"/>
	<path fill="#FEFEFE" transform="matrix(0.69375 0 0 0.693359 0 3.05176e-05)" d="M299.592 618.996C303.941 618.966 308.32 619.866 312.08 622.15C315.56 624.264 319.601 629.363 320.626 633.374L320.176 633.665C317.906 632.798 315.667 631.905 313.298 631.338C313.151 631.303 313.004 631.271 312.857 631.238L313.558 630.11L313.152 629.742C310.055 630.194 307.281 631.858 304.5 633.233L299.125 636.976C298.887 637.475 298.693 637.932 298.353 638.372C298.343 637.898 298.343 637.248 298.268 636.794C298.033 635.354 297.759 634.755 296.458 634.023C293.208 632.194 286.011 634.862 282.565 635.846Q283.567 633.589 284.763 631.429C288.237 625.197 292.654 620.996 299.592 618.996Z"/>
	<path fill="#FEFEFE" transform="matrix(0.69375 0 0 0.693359 0 3.05176e-05)" d="M309.372 634.987L311.516 635.297C313.992 637.272 316.861 639.213 318.49 641.989C320.854 646.018 321.562 651.713 320.337 656.2C318.991 661.132 315.406 665.443 310.886 667.8C304.576 671.091 298.482 669.811 292.084 667.856C287.67 665.516 284.782 662.563 283.128 657.754C281.047 651.703 282.378 646.057 284.965 640.466C287.748 639.159 290.579 637.94 293.39 636.692C294.273 637.826 295.386 639.571 296.734 640.167C301.531 642.286 304.666 636.768 308.848 635.174C309.021 635.108 309.197 635.049 309.372 634.987Z"/>
	<path fill="#7358F9" transform="matrix(0.69375 0 0 0.693359 0 3.05176e-05)" d="M654.895 135.212Q656.469 135.079 658.048 135.13Q659.627 135.181 661.19 135.415Q662.752 135.648 664.277 136.062Q665.802 136.475 667.268 137.063C673.693 139.58 678.137 144.623 680.83 150.88C687.438 166.233 679.756 184.022 674.021 198.51C678.309 199.2 682.481 198.784 686.75 199.187C688.642 199.365 689.29 199.314 690.494 200.758C690.366 202.488 690.272 202.674 689.235 204.069C684.669 205.546 677.002 204.504 672.205 203.989C664.871 203.201 611.591 186.661 607.818 181.999C607.641 180.379 607.666 180.312 608.484 178.9C609.606 178.318 610.249 177.865 611.57 177.996C615.024 178.336 625.908 183.057 630.341 184.393C628.948 175.105 628.158 167.031 630.29 157.745C627.53 156.079 624.512 154.87 621.568 153.572C612.739 151.915 604.011 158.64 599.508 165.674C598.1 167.874 596.006 173.724 594.045 174.855C585.78 173.697 576.576 168.664 568.196 166.31C573.573 169.91 578.267 172.149 582.354 177.37L582.178 177.252L583.043 179.599L582.948 178.501L582.127 179.947L583.101 179.122L582.852 178.424L582.38 179.975C580.859 179.923 579.776 179.501 578.404 178.847C573.352 176.439 561.399 167.174 559.896 161.852C559.578 160.727 559.788 160.794 560.282 159.846C566.658 157.486 585.776 166.539 592.63 169.072Q593.197 167.706 593.792 166.353C596.944 159.221 602.709 153.041 610.092 150.26C618.242 147.19 624.678 149.545 632.238 152.895Q633.511 150.824 634.873 148.81C640.092 141.18 645.83 136.97 654.895 135.212Z"/>
	<path fill="#FEFEFE" transform="matrix(0.69375 0 0 0.693359 0 3.05176e-05)" d="M654.362 141.462C657.858 140.981 660.766 141.169 664.112 142.254C668.735 143.752 672.061 146.671 674.199 151.039C681.359 165.67 673.098 183.366 668.189 197.504C664.863 196.787 661.623 195.697 658.375 194.695C651.596 192.666 642.943 191 637.024 187.094C637.178 183.332 636.253 180.515 635.473 176.898Q635.203 175.611 635.032 174.307Q634.861 173.003 634.79 171.689Q634.719 170.376 634.747 169.061Q634.776 167.746 634.905 166.437Q635.034 165.128 635.262 163.833Q635.49 162.538 635.816 161.264Q636.142 159.989 636.564 158.744Q636.986 157.498 637.501 156.288C640.838 148.638 646.837 144.469 654.362 141.462Z"/>
	<path fill="#7358F9" transform="matrix(0.69375 0 0 0.693359 0 3.05176e-05)" d="M456.079 813.654C460.481 813.462 464.922 812.683 468.938 814.928C470.406 815.748 471.692 816.903 472.018 818.625C472.315 820.188 471.713 821.63 470.774 822.857C469.648 824.326 467.797 825.588 466.033 826.152C463.08 827.096 447.908 827.593 443.694 827.999C453.898 838.598 468.655 847.019 481.498 854.029C552.561 892.815 644.716 904.857 724.49 897.254C742.33 895.554 760.392 893.411 777.967 889.91C788.563 887.799 799.066 884.33 809.738 882.78C812.267 882.413 815.727 881.779 817.977 883.156L817.892 884.43C813.283 890.529 794.792 892.912 787.372 894.643C772.882 897.892 758.368 900.691 743.619 902.489C656.813 913.075 553.882 902.798 476.559 859.818C463.727 852.686 451.852 844.265 440.309 835.22C441.741 841.801 444.953 847.705 446.344 854.159C446.776 856.162 446.594 858.042 445.354 859.72C443.929 861.648 441.385 863.85 438.898 864.067C437.261 864.21 435.847 863.493 434.658 862.422C428.425 856.806 426.174 844.579 425.487 836.649C425.059 831.716 423.926 823.213 427.574 819.282C432.281 814.211 449.191 814.001 456.079 813.654Z"/>
	<path fill="#7358F9" transform="matrix(0.69375 0 0 0.693359 0 3.05176e-05)" d="M407.619 173.23C424.326 171.972 447.062 181.893 462.021 189.547C466.145 191.656 470.688 194.507 472.892 198.733C475.577 203.88 475.687 210.16 477.21 215.707C479.391 223.65 482.152 231.726 485.049 239.438Q490.025 252.57 496.146 265.208C498.196 269.456 501.748 274.078 502.897 278.568C503.298 280.136 503.116 280.704 502.238 281.999C501.473 282.193 500.83 282.569 500.068 282.208C491.326 278.075 475.466 229.21 472.33 217.747C468.748 223.641 465.037 229.18 460.308 234.25C447.145 248.365 423.703 263.838 405.835 271.635C389.889 278.594 351.747 289.462 334.98 289.35C328.323 289.306 322.589 287.892 316.429 285.466C327.43 318.026 337.923 351.023 350.895 382.867C354.743 384.28 358.598 385.578 362.571 386.598C384.902 392.333 413.666 387.671 434.9 379.116C442.084 376.222 448.706 372.4 455.374 368.499C465.496 362.891 476.065 354.589 483.748 345.892C488.039 341.034 491.314 335.078 496.806 331.439C500.647 330.78 504.254 332.656 508.052 333.034C514.839 333.71 525.381 331.958 531.423 334.674C531.877 336.008 531.772 335.955 531.181 337.255C524.492 342.329 506.558 338.135 498.403 337.204C493.505 342.405 489.662 348.464 484.653 353.644C469.735 369.071 448.038 381.351 427.739 387.965C401.826 396.408 371.214 399.367 346.375 386.668C342.981 380.104 341.164 372.327 338.52 365.388Q327.963 337.679 318.485 309.582C315.325 300.161 311.799 290.667 309.69 280.945C307.314 269.989 311.659 261.535 317.452 252.48C313.538 250.957 310.1 249.074 306.995 246.203C301.77 241.372 298.875 234.837 298.707 227.733C298.511 219.445 301.731 211.634 307.447 205.668C311.178 201.773 315.982 198.828 321.541 198.864C331.439 198.927 340.252 206.733 346.827 213.315C352.687 207.064 358.586 200.482 365.198 195.029C376.514 185.697 393.424 176.98 407.619 173.23Z"/>
	<path fill="#FEFEFE" transform="matrix(0.69375 0 0 0.693359 0 3.05176e-05)" d="M375.8 273.771L373.199 271.78C370.774 272.379 370.436 274.573 368.297 275.284C367.731 273.479 367.714 273.439 368.367 271.669C367.633 270.614 367.25 269.703 366.814 268.509C367.44 266.882 368.311 266.324 369.969 265.65C372.032 264.812 373.469 265.673 375.416 266.361C377.867 266.248 380.434 267.282 382.275 268.929C383.094 269.661 383.084 270.135 383.28 271.162C382.339 272.705 381.723 273.496 379.895 273.929C378.576 274.242 377.222 274.45 375.885 274.672L375.8 273.771Z"/>
	<path fill="#FEFEFE" transform="matrix(0.69375 0 0 0.693359 0 3.05176e-05)" d="M469.308 208.762C469.398 209.542 469.44 210.053 469.334 210.819C467.774 222.082 447.397 238.902 438.761 245.611C437.247 241.312 435.681 238.323 432.463 235.055C428.722 233.103 424.97 231.84 420.93 230.651C437.62 225.092 454.457 218.295 469.308 208.762Z"/>
	<path fill="#FEFEFE" transform="matrix(0.69375 0 0 0.693359 0 3.05176e-05)" d="M416.843 179.284C427.777 179.601 457.834 191.325 466.382 198.283C468.263 199.813 469.147 200.853 469.389 203.305C467.349 205.792 459.722 208.117 456.562 209.525C448.045 213.541 439.553 217.72 430.863 221.348C428.391 213.542 426.567 205.732 425.057 197.692C424.471 197.324 423.136 196.663 422.758 196.138C421.376 194.217 417.991 182.458 416.843 179.284Z"/>
	<path fill="#FEFEFE" transform="matrix(0.69375 0 0 0.693359 0 3.05176e-05)" d="M319.429 204.491C323.025 204.417 326.441 205.371 329.75 206.698C335.462 208.987 340.943 213.171 343.283 219.031C345.2 223.834 344.698 229.337 342.501 233.954C339.348 240.584 333.826 243.912 327.174 246.265C324.65 246.253 322.118 246.878 319.642 247.333C313.426 244.876 308.778 242.022 305.875 235.696C303.391 230.284 303.377 223.872 305.589 218.371C308.058 212.227 313.371 207.053 319.429 204.491Z"/>
	<path fill="#FEFEFE" transform="matrix(0.69375 0 0 0.693359 0 3.05176e-05)" d="M347.615 244.54C348.943 244.479 350.274 244.42 351.604 244.438C354.207 244.473 357.123 245.264 358.892 247.296C362.209 251.105 360.985 257.799 360.629 262.449C357.73 261.096 353.508 258.541 350.323 258.25C348.643 258.097 347.878 258.804 346.682 259.827C345.433 266.775 356.946 267.733 359.914 272.315C361.021 274.023 361.569 276.724 362.161 278.684C357.152 280.066 352.048 281.047 346.961 282.091C338.704 283.57 327.549 284.997 319.82 280.714C317.675 279.525 316.077 277.79 315.467 275.378C313.679 268.308 319.44 258.957 322.92 253.208C331.474 251.106 339.025 246.358 347.615 244.54Z"/>
	<path fill="#FEFEFE" transform="matrix(0.69375 0 0 0.693359 0 3.05176e-05)" d="M408.309 178.761C408.492 178.801 408.685 178.808 408.857 178.882C411.933 180.212 423 217.754 424.943 223.506C421.679 224.941 418.318 226.146 414.981 227.397C411.949 221.411 409.19 217.615 402.601 215.41C397.674 213.762 391.844 213.867 387.212 216.318C381.791 219.186 379.374 223.66 377.591 229.22L377.368 230.036C376.809 230.168 354.013 221.717 349.634 220.386C362.425 200.293 386.05 186.037 408.309 178.761Z"/>
	<path fill="#FEFEFE" transform="matrix(0.69375 0 0 0.693359 0 3.05176e-05)" d="M391.691 220.21Q394.151 219.987 396.616 220.135Q399.082 220.283 401.497 220.799C408.852 222.363 405.694 228.446 408.817 232.931C411.505 236.791 417.3 236.382 421.445 236.99C424.687 237.466 428.67 238.402 430.608 241.281C432.369 243.898 432.013 247.008 431.389 249.924C425.154 257.333 399.706 268.084 389.464 271.196C388.052 267.964 386.208 264.602 383.512 262.266C378.799 258.18 373.816 257.907 367.942 258.304C367.224 251.971 366.833 247.277 363.484 241.653L363.902 241.172L363.646 240.201L362.657 239.698L363.057 241.653C355.345 239.065 356.458 238.072 347.429 238.61C349.057 234.762 350.182 231.044 350.964 226.941Q364.423 230.715 377.313 236.121C375.299 236.163 372.467 235.905 370.584 236.648C369.354 237.134 368.303 238.052 367.775 239.275C366.936 241.217 367.394 243.257 368.253 245.102C370.142 249.161 374.583 253.75 378.831 255.251C380.466 255.829 381.528 255.773 383.088 255.086L383.495 253.984C382.275 249.382 377.18 246.559 374.125 243.132L374.258 242.167C376.222 241.038 379 242.476 381.361 241.412C383.691 238.189 382.618 231.355 384.146 227.355C385.635 223.456 387.956 221.774 391.691 220.21Z"/>
	<path fill="#7358F9" transform="matrix(0.69375 0 0 0.693359 0 3.05176e-05)" d="M1034.05 129.683C1035.81 129.617 1037.16 129.785 1038.72 130.66C1043.06 133.092 1046.18 138.478 1047.64 143.113C1048.81 146.873 1049.45 151.044 1047.53 154.655C1056.3 153.271 1065.33 151.796 1073.11 157.218C1073.19 157.35 1073.29 157.471 1073.35 157.613C1074.38 160.085 1072.49 165.365 1071.26 167.694C1068.28 173.339 1063.59 177.527 1057.4 179.313C1048.05 182.016 1039.46 179.319 1031.28 174.762C1030.4 177.479 970.18 227.13 965.118 230.643C967.998 234.824 970.803 239.074 973.164 243.575C982.015 260.445 988.157 286.976 982.189 305.771C976.583 323.426 960.685 335.299 944.767 343.419C928.139 351.9 899.213 355.872 881.503 350.062C873.592 347.413 866.501 343.571 860.147 338.131C847.415 327.231 837.213 310.174 836.102 293.212C834.781 273.042 841.026 248.131 854.497 232.895C867.436 218.261 887.941 207.939 907.513 206.83C926.598 205.749 946.545 213.857 960.645 226.418C972.383 216.845 983.551 206.612 995.267 197.045C1001.85 191.671 1023.56 176.404 1027.41 171.084C1028.04 168.12 1025.7 163.702 1025.09 160.614C1022.92 149.676 1028.1 138.509 1034.05 129.683Z"/>
	<path fill="#FEFEFE" transform="matrix(0.69375 0 0 0.693359 0 3.05176e-05)" d="M1035.33 135.921C1037.93 136.461 1039.05 137.777 1040.49 139.971C1043.04 143.835 1043.4 148.992 1042.41 153.433C1041.41 157.895 1039.19 161.691 1035.28 164.125L1034.47 165.326L1033.69 165.289C1033.35 164.757 1033.02 164.221 1032.73 163.655C1027.63 153.636 1032.37 145.417 1035.33 135.921Z"/>
	<path fill="#FEFEFE" transform="matrix(0.69375 0 0 0.693359 0 3.05176e-05)" d="M1051.5 159.718C1056.89 159.228 1061.78 158.904 1067.05 160.325C1067.08 160.46 1067.11 160.593 1067.12 160.73C1067.27 162.999 1065.51 166.187 1064.19 167.901C1061.05 171.96 1056.32 173.511 1051.43 174.109C1046.86 174.898 1040.99 173.026 1036.52 171.926C1040.87 169.207 1044.18 165.324 1046.61 160.861L1051.5 159.718Z"/>
	<path fill="#FEFEFE" transform="matrix(0.69375 0 0 0.693359 0 3.05176e-05)" d="M906.238 251.435C912.95 250.956 917.386 251.85 923.394 254.901C917.083 259.405 911.192 264.331 906.369 270.444C904.206 273.185 901.744 276.974 902.36 280.622C902.773 283.066 904.306 284.834 906.337 286.151C910.579 288.903 916.971 289.865 921.893 288.716C924.382 288.135 926.003 287.207 927.402 285.074C927.651 283.339 927.795 283.062 926.999 281.426C922.056 277.526 913.139 278.121 907.092 278.365C911.744 270.071 918.745 263.72 926.646 258.637C928.421 260.153 930.104 261.806 931.819 263.392C935.203 267.149 938.245 271.608 939.628 276.52C941.141 281.898 940.377 287.402 937.587 292.247C933.843 298.749 927.232 302.991 920.076 304.86C913.122 306.677 906.158 305.938 899.966 302.205C893.576 298.352 889.936 292.236 888.295 285.076C886.625 277.784 885.547 266.465 889.989 259.949C893.759 254.419 900.075 252.724 906.238 251.435Z"/>
	<path fill="#FEFEFE" transform="matrix(0.69375 0 0 0.693359 0 3.05176e-05)" d="M914.695 228.944C916.68 228.801 918.676 228.653 920.667 228.625C929.458 228.498 936.057 234.744 941.991 240.39C937.511 244.539 932.811 248.251 927.899 251.869C922.999 249.123 918.276 247.192 912.617 246.765C904.62 246.162 895.467 248.256 889.338 253.651C884.167 258.201 881.957 264.661 881.561 271.385C880.918 282.302 883.811 294.9 891.364 303.128C896.595 308.827 904.286 312.593 912.054 312.811C921.656 313.08 931.083 308.536 937.848 301.885C943.128 296.695 946.568 289.392 946.597 281.934C946.64 270.525 939.034 263.045 931.511 255.538C936.048 252.651 940.181 249.511 944.357 246.136C945.253 245.321 945.3 245.193 946.488 245.069C952.701 249.673 958.212 262.967 959.95 270.507C962.396 281.122 960.691 290.799 954.896 300.027C947.062 312.502 934.492 319.886 920.291 323.028C908.439 325.651 892.528 324.269 882.151 317.578C872.218 311.172 867.551 299.736 865.237 288.578C862.589 275.81 864.807 263.76 872.045 252.844C881.581 238.462 898.418 232.246 914.695 228.944Z"/>
	<path fill="#FEFEFE" transform="matrix(0.69375 0 0 0.693359 0 3.05176e-05)" d="M906.659 213.379C924.671 212.059 941.119 219.174 955.062 229.94L946.101 237.41C940.637 232.471 934.813 227.243 927.673 224.945C914.074 220.567 895.403 228.373 883.215 234.731C871.213 240.992 863.147 253.289 859.295 266.014C855.213 279.5 859.204 297.631 865.939 309.693C871.22 319.149 879.667 325.58 890.058 328.512C907.246 333.363 925.011 330.909 940.48 322.204C952.345 315.527 962.407 304.784 965.97 291.407C969.98 276.352 965.181 262.659 957.698 249.636C955.687 246.43 953.161 243.48 950.822 240.502L959.266 234.895C969.141 245.22 974.28 262.244 976.589 276.036C978.984 290.344 979.206 302.877 970.366 315.107C957.513 332.889 934.728 342.056 913.794 345.284C896.999 347.873 882.208 346.35 868.205 335.992C855.278 326.43 845.316 311.689 843.09 295.591C840.681 278.161 846.668 254.274 857.218 240.343C869.124 224.62 887.379 215.941 906.659 213.379Z"/>
	<path fill="#7358F9" transform="matrix(0.69375 0 0 0.693359 0 3.05176e-05)" d="M691.671 419.08C692.97 419.391 693.645 419.977 694.676 420.78C696.016 424.438 691.649 432.465 690.316 436.185C712.822 440.102 738.869 438.077 759.952 447.99C766.306 450.977 769.819 454.525 772.202 461.194C768.934 482.178 755.464 498.282 745.442 516.209C740.323 525.367 736.333 535.218 731.374 544.497C722.654 560.81 713.834 576.643 705.849 593.364C703.24 598.828 700.032 604.019 698.059 609.764C706.378 612.546 714.454 616.023 721.157 621.82C728.676 628.324 731.897 636.459 732.609 646.242C733.289 655.587 731.621 664.429 725.279 671.615C711.134 687.644 677.146 695.023 656.243 696.128C625.131 697.771 576.718 688.873 553.581 667.85C546.094 661.046 540.549 652.186 540.113 641.854C539.81 634.689 542.252 628.207 547.113 622.946C550.899 618.848 558.785 612.591 564.63 612.68C565.796 612.697 565.608 612.78 566.367 613.492C566.729 618.797 552.841 625.028 549.16 631.741C546.548 636.504 546.061 641.727 547.677 646.893C551.941 660.522 565.196 668.604 577.109 674.781C585.371 678.169 594.091 680.318 602.717 682.561C634.791 690.9 662.757 692.332 694.452 681.419C705.386 677.654 719.412 671.973 724.551 660.716C727.755 653.697 726.843 644.013 723.987 637.014C719.159 625.18 705.829 619.721 694.826 615.161C691.418 621.254 689.608 628.724 684.857 633.95C677.138 642.44 660.894 643.8 650.014 644.274C633.167 645.006 603.997 641.014 591.829 629.265C586.62 624.236 584.757 613.72 581.915 607.131C577.357 596.561 571.399 586.318 566.271 575.985C557.32 557.946 548.945 539.601 540.195 521.46C534.052 508.725 527.195 496.037 521.706 483.023C520.036 479.065 519.436 475.477 519.286 471.203C516.027 467.569 512.351 463.255 512.717 458.021C512.933 454.934 514.816 452.157 517.239 450.324C534.947 436.932 657.665 432.74 684.281 435.492C686.087 429.679 687.387 423.62 691.671 419.08Z"/>
	<path fill="#FEFEFE" transform="matrix(0.69375 0 0 0.693359 0 3.05176e-05)" d="M584.505 510.239C585.155 510.355 585.88 510.493 586.4 510.94C588.832 513.028 589.102 519.428 589.029 522.415C588.484 522.474 587.718 522.615 587.158 522.548C585.695 522.374 584.811 521.924 584.05 520.631C582.451 517.918 583.784 513.158 584.505 510.239Z"/>
	<path fill="#FEFEFE" transform="matrix(0.69375 0 0 0.693359 0 3.05176e-05)" d="M562.179 505.382C562.995 505.508 563.807 505.613 564.546 506.01C566.994 507.327 568.657 511.458 569.34 514.066C570.502 518.505 570.891 521.396 568.608 525.477L566.879 525.412C564.886 524.329 564.198 522.954 563.359 520.885C561.69 516.765 560.427 509.551 562.179 505.382Z"/>
	<path fill="#FEFEFE" transform="matrix(0.69375 0 0 0.693359 0 3.05176e-05)" d="M555.439 492.34C561.832 492.8 568.405 495.221 574.753 496.426C582.315 497.862 590.05 498.425 597.589 499.955C599.52 500.347 602.442 500.798 604.059 501.954C605.489 502.976 605.472 504.137 605.737 505.714C603.999 505.874 602.271 505.88 600.527 505.825C591.193 505.528 561.8 503.194 556.085 496.592C554.898 495.222 555.348 494.038 555.439 492.34Z"/>
	<path fill="#FEFEFE" transform="matrix(0.69375 0 0 0.693359 0 3.05176e-05)" d="M642.761 441.098C655.781 439.771 669.27 441.017 682.301 441.816C681.309 446.737 678.763 456.762 681.166 461.195C681.717 462.212 681.965 462.006 683 462.283C683.581 462.05 684.178 461.833 684.693 461.465C687.558 459.417 687.912 446.354 688.621 442.466C711.318 445.359 736.707 445.275 757.993 454.407C761.041 455.715 763.877 457.252 765.158 460.472C765.063 461.785 765.253 462.507 764.204 463.468C755.628 471.322 677.907 479.475 662.319 479.535C624.266 479.464 590.966 477.222 553.289 470.983C544.747 469.569 534.958 468.672 526.926 465.491C523.814 464.258 520.418 462.598 519.023 459.39C519.14 458.097 519.135 457.687 520.087 456.697C529.095 447.332 625.293 441.951 642.761 441.098Z"/>
	<path fill="#7358F9" transform="matrix(0.69375 0 0 0.693359 0 3.05176e-05)" d="M146.103 483.534C178.607 482.726 211.426 485.205 243.953 485.845Q265.9 486.304 287.851 486.342C297.276 486.382 306.972 485.992 316.358 486.879C316.958 486.935 318.296 487.057 318.8 487.403C321.335 489.141 329.807 506.954 332.257 511.14C338.549 521.891 345.635 532.196 351.706 543.072C359.876 557.709 366.827 573.681 376.32 587.512C377.5 589.231 379.27 589.489 380.593 591.076C380.653 595.7 376.113 593.178 376.078 600.113C375.893 636.895 378.841 673.936 379.817 710.73C379.95 715.715 381.702 738.568 379.342 741.562C371.825 743.767 350.77 743.786 341.97 744.248Q297.623 746.478 253.249 748.047C237.971 748.511 222.701 748.451 207.421 749.058C209.892 751.705 213.565 754.636 213.889 758.393C214.023 759.953 214.335 761.211 214.827 762.694C215.951 763.035 217.115 763.375 218.178 763.877C220.424 764.937 222.133 766.751 222.811 769.152C223.362 771.104 223.113 772.376 222.037 774.07C221.531 774.867 221.152 775.401 220.923 776.337C221.898 776.459 223.83 776.42 224.676 776.742C227.461 777.802 232.835 782.87 235.612 784.867C247.937 793.729 264.183 800.85 279.611 800.425C284.299 800.296 288.857 799.297 293.469 798.554C302.309 797.13 309.618 797.626 317.037 803.093C319.501 804.908 322.386 807.035 322.894 810.221C322.369 811.987 321.946 812.639 320.63 813.927C318.702 814.515 318.548 814.224 316.758 813.474C315.77 813.855 314.835 814.18 313.803 814.415L314.342 813.471L314.652 814.272L315.51 814.006L314.464 813.27C314.938 812.451 315.222 811.085 315.038 810.175C314.633 808.181 312.77 806.817 311.183 805.756C303.622 800.704 296.482 803.924 288.467 805.455C268.997 809.172 245.592 797.477 229.712 786.912L224.679 792.071C236.166 799.446 249.404 806.853 263.301 807.694C267.145 807.926 271.923 806.29 275.597 807.376C286.697 810.654 292.114 830.916 296.922 840.137Q317.851 828.706 339.276 818.234C336.413 808.1 335.703 796.065 334.63 785.566C334.329 782.618 334.951 780.069 336.838 777.761L337.378 777.737C338.645 779.564 342.19 811.314 342.943 816.137C346.488 814.474 349.878 812.464 353.4 810.745C356.602 809.182 362.665 806.449 366.196 807.814C367.435 808.293 367.882 808.727 368.387 809.965C369.157 811.853 367.806 814.186 367.009 815.852Q367.692 817.062 368.351 818.285C375.515 831.69 382.021 845.402 388.898 858.946C391.835 864.73 396.172 871.055 398.172 877.138C398.686 878.699 398.619 880.01 398.119 881.557C397.773 882.628 397.711 882.566 396.721 883.087C388.883 881.054 367.359 828.466 361.015 818.295C342.426 827.07 322.081 834.859 304.752 845.884C304.285 847.014 303.495 849.751 302.551 850.354Q302.676 848.907 302.824 847.463C301.562 847.23 300.401 847.778 299.382 848.505C294.946 851.668 294.001 860.76 293.284 865.678C293.626 868.432 310.575 898.378 313.196 903.945C313.006 906.022 312.907 906.193 311.544 907.777C309.917 908.171 309.953 908.079 308.451 907.3C303.851 901.123 281.158 857.666 279.724 851.02C281.808 848.138 288.707 845.285 292.008 843.429C287.898 833.321 282.682 820.848 275.448 812.604C251.09 813.762 238.995 806.934 219.456 793.461C210.734 796.659 187.591 802.585 181.421 807.449C179.274 809.142 177.9 811.56 176.545 813.892C173.901 818.443 171.127 827.104 167.83 830.602C166.983 831.501 166.331 831.36 165.171 831.465L164.311 830.428C164.284 829.628 164.264 828.894 164.402 828.101C165.24 823.315 168.202 818.282 170.671 814.189C173.028 810.283 175.227 806.212 178.811 803.278C184.046 798.994 206.008 793.414 214.186 790.631C217.122 789.632 221.315 788.531 223.662 786.463C224.853 785.415 224.819 784.545 224.956 783.043C219.354 776.62 198.214 790.908 191.325 788.542C190.501 788.259 190.538 787.809 190.213 787.085C191.605 783.442 210.225 778.775 215.565 773.883C217.067 772.506 217.654 771.618 217.741 769.628L216.769 768.78C209.002 767.314 204.553 774.591 197.981 776.422C196.171 776.927 195.047 776.709 193.497 775.793C193.392 775.357 193.09 774.923 193.183 774.484C193.581 772.595 206.686 767.847 208.715 762.048C208.777 761.869 208.833 761.687 208.893 761.506C208.801 761.397 208.717 761.281 208.618 761.178C203.112 755.423 194.894 768.918 188.956 768.512C188.099 768.454 187.792 767.841 187.227 767.273C188.438 760.496 201.092 758.693 203.568 752.049C203.948 751.028 203.628 750.838 203.254 749.884C199.874 747.583 196.317 748.104 192.443 748.36C190.983 750.34 189.955 752.939 187.746 754.16C185.989 754.276 185.639 754.265 184.059 753.513C183.248 749.787 200.784 731.884 202.191 725.806C201.869 724.249 201.961 723.778 200.463 722.96C190.831 717.693 176.927 749.203 172.219 755.134C168.642 759.64 164.847 762.494 159.645 764.875C159.2 764.28 158.776 763.678 158.341 763.076C154.022 757.094 154.807 748.13 148.395 743.205C146.792 741.974 144.697 741.307 142.678 741.686C141.027 741.997 140.074 742.25 139.097 743.589C139.494 747.488 142.641 751.386 144.315 754.914C147.721 762.093 145.517 784.243 142.947 791.384L142.699 792.059C146.054 795.369 149.331 798.678 152.427 802.238C149.911 805.592 147.679 809.096 145.246 812.498C143.827 814.482 141.639 816.928 139.145 817.342L138.656 816.385C139.701 810.964 142.931 806.719 145.948 802.244C143.471 799.62 141.154 796.989 138.05 795.089C134.136 801.012 129.792 806.655 125.775 812.51C122.807 816.836 120.122 821.703 116.671 825.64C115.495 826.982 114.48 827.865 112.768 828.383L111.82 827.741C111.553 826.597 111.433 825.645 111.893 824.52C112.85 822.182 134.305 791.291 135.466 790.347C136.101 789.831 137.726 789.411 138.536 789.075C141.134 784.575 141.282 778.672 141.394 773.607C141.665 761.352 140.42 753.806 131.699 744.71C134.575 741.053 137.307 737.467 142.269 736.803C145.393 736.384 148.325 737.581 150.768 739.468C157.364 744.563 159.386 751.838 160.528 759.717C160.654 759.641 160.781 759.566 160.906 759.488C161.115 759.359 161.321 759.225 161.531 759.097C168.587 754.787 172.024 747.604 175.904 740.601C180.077 733.071 186.687 720.701 195.715 718.466C198.378 717.806 201.728 718.164 204.082 719.624C205.479 720.49 206.368 721.667 206.616 723.305C207.555 729.494 199.377 738.737 196.039 743.506C208.447 744.014 221.016 743.326 233.44 743.061Q267.955 742.631 302.419 740.716C326.778 739.457 351.283 738.872 375.59 736.928C375.477 723.432 374.46 709.895 373.993 696.401Q372.206 645.717 371.048 595.013Q297.455 595.615 223.861 595.096L170.084 594.245C161.227 594.09 151.458 593.076 142.731 594.154C137.208 594.835 131.875 597.996 126.647 599.853C123.125 601.104 119.257 601.694 115.589 602.385C118.07 617.372 119.152 632.703 120.603 647.821Q123.139 674.818 126.432 701.734Q128.484 699.513 130.575 697.328C132.933 694.875 135.195 692.189 138.791 692.117C142.804 696.279 138.846 702.765 141.079 707.583C143.95 707.804 146.645 703.348 150.426 703.387C152.121 703.405 153.871 704.306 155.044 705.498C157.057 707.544 157.686 710.786 157.726 713.561C157.774 716.857 157.58 719.293 155.175 721.721L154.249 721.653C152.137 717.841 154.124 711.372 151.655 708.175C146.44 706.835 143.494 714.077 138.764 714.609C137.774 714.72 137.74 714.434 136.999 713.877C135.246 709.455 136.548 701.359 136.872 696.625C134.165 699.271 129.905 702.608 128.065 705.84C126.842 707.987 126.47 710.283 125.067 712.435C123.733 712.949 123.621 713.107 122.272 712.71C121.003 710.837 121.401 708.594 121.102 706.447C120.884 704.878 120.852 704.235 119.55 703.299C119.053 703.4 118.811 703.421 118.365 703.594C116.073 704.483 114.3 707.036 113.267 709.155C108.363 719.212 108.61 730.738 112.102 741.078C105.648 751.025 98.7878 757.449 87.339 761.127C79.5861 763.618 61.6554 765.638 54.1786 761.748C53.2412 760.164 53.4897 760.021 53.8409 758.288C57.2644 756.119 63.6033 758.863 67.554 759.037C71.1467 759.196 74.9038 758.929 78.4554 758.376C91.1011 756.406 99.6681 750.211 107.111 740.028C105.189 735.513 104.322 731.708 104.41 726.788C104.543 719.334 107.221 706.18 113.247 701.102C115.074 699.562 117.797 699.225 119.502 697.6C119.412 687.588 117.707 677.397 116.784 667.418Q113.923 634.978 110.322 602.611C95.9075 601.874 83.422 599.268 72.4651 589.054C60.8817 578.257 54.6336 561.826 54.1955 546.189C53.7685 530.954 59.0355 515.858 69.6095 504.761C89.4701 483.917 119.476 484.054 146.103 483.534Z"/>
	<path fill="#FEFEFE" transform="matrix(0.69375 0 0 0.693359 0 3.05176e-05)" d="M293.618 850.812L294.173 851.524C293.445 854.263 292.452 858.668 289.936 860.152L287.009 854.135L293.618 850.812Z"/>
	<path fill="#FEFEFE" transform="matrix(0.69375 0 0 0.693359 0 3.05176e-05)" d="M137.51 504.978C140.469 505.81 143.822 509.456 146.162 511.485C141.455 510.881 137.098 511.634 132.4 511.535L133.108 511.198C131.925 511.062 131.564 510.947 130.491 511.415L130.159 510.551C128.333 511.872 126.213 512.301 124.073 512.9L123.558 512.413L123.311 512.841L123.28 511.694L124.93 511.16L125.046 510.489L123.214 509.781C123.225 508.843 122.995 508.857 123.674 508.339C125.474 506.967 134.493 505.908 136.878 506.372C137.033 506.402 137.18 506.461 137.33 506.505L137.51 504.978Z"/>
	<path fill="#FEFEFE" transform="matrix(0.69375 0 0 0.693359 0 3.05176e-05)" d="M141.08 518.852C139.777 519.448 139.505 520.491 138.459 521.137C136.323 522.457 132.133 518.499 128.519 519.665C127.212 520.087 126.858 520.113 126.23 521.312C130.381 524.085 137.015 521.984 141.569 521.959C143.264 521.95 143.585 522.762 144.58 523.907C145.162 523.537 145.746 523.162 146.347 522.822C148.099 521.827 148.974 521.538 150.876 522.106L151.127 523.138L149.726 524.604C145.118 525.947 128.719 525.833 124.03 524.502C122.986 524.205 123.162 524.384 122.605 523.323L123.25 523.061L124.577 524.479L124.955 523.242C124.007 522.418 123.347 521.865 122.762 520.726L123.999 520.19L123.886 520.333C125.108 518.153 123.586 518.635 123.255 516.493C128.242 513.039 140.572 512.986 146.575 513.75L146.717 515.217L147.279 515.042C144.297 515.543 141.354 516.039 138.432 516.833L138.531 517.42L141.319 518.201C143.861 517.571 146.704 516.563 149.316 516.484C150.352 517.809 150.68 518.132 150.946 519.846C149.425 521.176 148.133 520.929 146.133 520.796C144.711 520.702 143.273 520.563 141.868 520.329L141.08 518.852Z"/>
	<path fill="#FEFEFE" transform="matrix(0.69375 0 0 0.693359 0 3.05176e-05)" d="M157.896 531.883C161.356 537.403 160.432 549.409 159.32 555.573C156.991 568.492 149.863 578.44 139.181 585.842C125.991 594.983 111.825 596.95 96.2297 594.034C94.6952 593.478 93.4239 593.393 92.5515 591.977C96.4706 587.281 102.476 583.194 107.125 579.133C116.972 570.532 126.497 561.481 136.19 552.7C143.151 546.394 152.456 539.48 157.896 531.883Z"/>
	<path fill="#FEFEFE" transform="matrix(0.69375 0 0 0.693359 0 3.05176e-05)" d="M103.169 494.049C106.565 493.665 115.851 493.273 118.485 495.621C118.801 495.903 119.341 527.103 119.491 530.619L80.8517 530.998C79.799 540.689 80.4903 550.037 81.2196 559.719C81.8677 568.322 84.1662 580.206 82.0746 588.442C70.5851 579.839 63.8089 568.577 61.0196 554.511C58.3143 540.868 60.6374 526.369 68.5672 514.786C76.4878 503.216 89.6445 496.484 103.169 494.049Z"/>
	<path fill="#FEFEFE" transform="matrix(0.69375 0 0 0.693359 0 3.05176e-05)" d="M129.353 488.552C164.285 488.181 199.274 489.967 234.193 490.863C261.476 491.564 288.75 491.28 316.034 492.1C319.59 498.607 322.846 505.262 326.56 511.684C332.644 522.205 339.452 532.298 345.673 542.736C350.421 550.702 354.42 559.124 358.826 567.283C362.822 574.683 367.204 581.885 370.929 589.428L347.656 589.705C281.19 591.141 214.393 589.892 147.93 588.255C155.339 580.324 160.982 572.45 164.024 561.879Q164.413 560.518 164.737 559.14Q165.06 557.762 165.316 556.37Q165.572 554.977 165.76 553.574Q165.948 552.171 166.069 550.761Q166.189 549.35 166.241 547.936Q166.292 546.521 166.276 545.106Q166.259 543.69 166.174 542.277Q166.089 540.864 165.935 539.457Q165.782 538.049 165.56 536.651Q165.339 535.253 165.05 533.867Q164.761 532.482 164.406 531.111Q164.05 529.741 163.628 528.39Q163.207 527.038 162.721 525.709Q162.234 524.38 161.684 523.075Q161.134 521.771 160.521 520.495Q159.909 519.219 159.235 517.974C151.26 503.575 137.437 493.71 121.786 489.219L129.353 488.552Z"/>
	<path fill="#7358F9" transform="matrix(0.69375 0 0 0.693359 0 3.05176e-05)" d="M246.489 529.187C254.965 531.936 264.075 542.717 270.571 548.928C275.32 545.554 284.61 534.149 288.384 532.889C289.54 533.71 289.425 533.744 289.72 535.152C287.702 542.275 277.368 550.029 272.046 555.063C263.755 549.819 256.106 541.555 248.437 535.306C238.927 545.758 230.71 557.207 222.274 568.524C221.57 569.246 220.912 569.497 220.011 569.95C215.265 569.293 200.794 556.469 195.917 552.887C193.095 556.626 186.507 567.676 182.713 569.38C181.351 569.992 180.766 570.239 179.396 569.693C179.363 569.504 179.302 569.319 179.295 569.127C179.128 564.443 191.476 551.017 194.86 547.141C203.324 551.997 210.994 558.252 218.676 564.227C228.374 552.885 237.243 540.889 246.489 529.187Z"/>
	<path fill="#7358F9" transform="matrix(0.69375 0 0 0.693359 0 3.05176e-05)" d="M1120.24 396.032C1122.46 395.786 1125.3 395.359 1127.48 395.799C1129.18 396.142 1130.88 397.373 1131.73 398.88C1132.77 400.737 1132.44 405.108 1131.8 407.039C1147.33 405.817 1201.89 391.793 1212.98 397.852C1214.37 398.611 1215.81 399.815 1216.12 401.461C1216.52 403.558 1215.5 405.693 1214.2 407.289C1210.55 411.773 1206.6 411.851 1201.26 412.373C1201.38 412.492 1201.52 412.6 1201.63 412.73C1206.42 418.245 1208.04 430.986 1209.86 438.01C1222.21 485.636 1229.83 533.047 1227.08 582.454C1226.25 597.391 1220.03 654.375 1209.57 663.725C1204.58 664.319 1199.51 664.373 1194.49 664.846C1184.15 665.822 1173.84 667.199 1163.49 668.059C1147.48 669.388 1131.45 670.18 1115.52 672.315C1102.27 674.092 1088.62 675.427 1075.5 677.975C1064.97 680.02 1055.19 683.795 1044.3 684.047C1036.39 684.23 1030.71 681.759 1023.75 678.395C1022.49 681.594 1010.66 691.717 1007.63 694.161C1004.88 696.376 1002.34 698.523 998.641 698.081C997.561 697.953 996.848 697.813 995.77 698.084C996.071 701.139 997.873 704.692 998.836 707.664Q1001.03 714.466 1002.14 721.528C1005.23 741.784 1006.18 762.18 1007.91 782.558C1009.22 797.984 1011.33 812.475 1011.23 828.052C1019.99 832.182 1030.98 833.162 1039.01 838.518C1040.47 839.494 1042.25 840.84 1042.52 842.695C1043.87 852.178 1032.87 881.795 1029.86 892.513C1027.63 900.412 1026.14 908.503 1023.89 916.395C1021.9 923.396 1019.3 930.089 1017.07 936.987C1015.87 940.675 1014.54 947.701 1011.75 950.511C1010.67 951.601 1009.67 951.343 1008.26 951.265C1007.01 949.869 1006.75 949.056 1006.99 947.169C1007.91 940.134 1012.02 932.537 1014.14 925.627C1016.98 916.406 1034.7 853.672 1033.73 849.761C1028.93 847.217 1004.96 844.064 996.845 841.806C987.798 839.292 978.934 835.745 970.029 832.752C959.67 829.27 949.174 826.243 938.821 822.721C935.233 839.492 929.467 855.546 924.556 871.94C920.431 885.708 917.207 899.689 913.998 913.679C913.346 916.521 911.955 920.262 909.414 921.852L908.674 921.341C906.409 910.976 917.836 873.051 921.095 860.971Q908.069 845.321 895.85 829.032C883.057 837.1 869.248 846.926 858.29 857.33C853.032 862.323 846.143 873.06 839.856 875.762L839.321 874.278L837.911 875.736L838.04 875.821C837.359 875.178 837.296 875.372 837.23 874.527C836.828 869.399 844.487 862.005 847.654 858.321C842.256 854.102 836.081 850.614 830.46 846.659C822.621 841.141 802.254 825.318 796.301 818.84C793.44 815.726 790.778 812.065 789.487 807.993C788.642 805.324 788.437 802.348 789.912 799.864C790.98 798.066 792.465 796.69 794.531 796.183C798.289 795.26 802.475 797.08 805.646 799.023C810.1 801.752 821.538 809.828 822.81 814.929C822.151 816.529 822.073 816.672 820.641 817.633C813.682 817.464 806.378 804.693 798.725 802.85C797.213 802.486 796.547 802.651 795.277 803.463C795.243 803.653 795.181 803.841 795.176 804.034C795.122 805.926 796.65 807.939 797.709 809.425C804.982 819.632 830.652 840.872 842.132 845.578C847.914 847.947 852.829 847.93 858.777 848.945C866.622 841.601 875.491 834.833 884.791 829.441C878.64 826.919 873.562 824.884 868.914 819.984C866.505 810.485 871.005 800.298 870.067 790.637C869.883 788.743 869.763 786.98 868.221 785.69L866.733 785.91C864.602 787.54 863.571 789.795 862.305 792.101C862.515 794.312 862.932 796.852 862.187 798.991C861.524 800.891 860.703 801.593 858.93 802.335C848.681 800.497 843.648 772.729 835.773 770.314C834.271 769.853 833.463 770.102 832.097 770.736L831.483 772.432C831.978 778.838 837.185 785.562 840.273 791.063C842.04 794.209 845.255 798.859 844.246 802.44C843.24 803.2 842.567 803.127 841.353 803.121C841.166 803.12 839.885 803.076 839.656 803.149C838.375 803.559 837.832 804.58 836.356 804.408C828.401 803.479 818.404 776.053 810.22 774.734C808.742 774.496 808.551 774.422 807.368 775.315C807.125 780.149 821.616 797.678 824.903 803.37C826.185 805.591 827.04 807.247 826.35 809.799C825.032 810.425 824.963 810.405 823.524 810.127C818.815 806.109 800.919 782.092 800.715 776.703C800.622 774.241 801.666 771.883 803.43 770.184C805.387 768.298 808.127 767.232 810.849 767.508C818.277 768.259 826.053 782.685 830.58 788.234C828.126 782.798 824.329 775.517 825.476 769.345C825.833 767.42 826.809 765.773 828.486 764.724C830.925 763.198 834.577 762.861 837.315 763.659C845.567 766.064 851.662 781.719 855.38 788.917C857.866 784.817 861.385 779.891 866.101 778.22C868.21 777.473 870.905 777.388 872.913 778.487C882.079 783.504 873.463 809.264 876.056 816.11C877.195 819.119 886.666 823.121 889.875 824.339C891.682 825.025 894.834 822.791 896.454 821.979C905.908 827.557 916.575 845.506 923.94 854.579C927.252 841.85 930.941 829.042 933.063 816.059C935.05 814.974 936.799 813.505 938.59 812.129C945.22 813.195 951.764 815.006 958.381 816.233C958.148 807.542 958.641 782.963 954.381 776.778C949.208 769.268 933.162 770.272 925.095 768.614C915.18 766.576 903.039 761.858 897.442 752.828C895.416 749.559 894.099 745.66 895.189 741.827C895.978 739.048 897.977 736.802 900.548 735.526C913.275 729.209 919.655 742.656 928.129 745.369C929.213 745.716 929.802 745.055 930.756 744.532C931.837 742.974 932.145 741.831 932.033 739.917C931.851 736.815 930.554 733.768 929.027 731.092C923.894 722.098 904.245 696.844 896.755 689.717C889.745 696.333 881.845 701.692 874.97 708.616C870.223 713.396 856.103 730.76 852.074 732.875L851.082 732.557C851.086 731.996 851.062 731.813 851.145 731.296C851.832 727.032 855.998 722.362 858.61 719.089C868.766 706.364 879.309 696.449 892.096 686.412C890.018 684.432 887.48 682.219 885.922 679.799C885.003 678.374 884.402 676.839 884.904 675.157C886.811 668.759 899.52 659.881 905.193 656.541C909.068 656.404 912.96 656.432 916.838 656.39C934.543 641.099 963.966 627.243 986.147 619.626C989.44 618.496 996.324 615.901 999.602 617.5L999.907 618.893C997.992 622.621 989.172 624.339 985.191 625.842C963.748 633.935 942.297 644.212 924.093 658.258C927.319 657.845 930.624 657.49 933.876 657.695C937.74 657.937 950.43 660.334 952.863 659.84C953.291 659.753 953.638 659.437 954.01 659.209C954.41 658.963 954.781 658.671 955.178 658.421C957.956 656.675 963.248 657.575 966.35 658.319C976.171 660.674 982.016 667.484 987.117 675.737C993.581 663.28 1004.54 653.216 1010.36 640.587C1018.59 622.747 1003.72 511.556 999.398 487.327C996.924 473.468 993.88 458.687 989.055 445.462C987.813 445.173 986.516 444.899 985.32 444.457Q985.044 444.357 984.781 444.227Q984.518 444.098 984.271 443.939Q984.023 443.781 983.795 443.597Q983.567 443.412 983.361 443.203Q983.155 442.994 982.973 442.764Q982.791 442.534 982.636 442.285Q982.481 442.036 982.354 441.771Q982.228 441.506 982.131 441.229C981.54 439.486 981.447 437.283 982.384 435.641C983.41 433.844 985.531 432.938 987.412 432.345C993.67 430.372 1001.07 429.905 1007.57 428.83C1024.36 426.057 1043.48 423.473 1059.82 419.865C1061.85 415.582 1059.1 410.822 1061.39 406.29C1062.93 405.16 1064.51 404.752 1066.35 404.375C1074.39 402.733 1082.83 402.168 1090.96 401.012C1100.76 399.618 1110.48 397.688 1120.24 396.032Z"/>
	<path fill="#FEFEFE" transform="matrix(0.69375 0 0 0.693359 0 3.05176e-05)" d="M1122.81 402.911C1123.51 403.169 1123.75 403.076 1124.1 403.812C1125.05 405.785 1124.95 407.779 1124.39 409.828C1123.87 409.996 1123.35 410.177 1122.82 410.312C1118.22 411.474 1071.53 417.754 1068.77 417.401C1068.41 417.355 1067.37 416.539 1067 416.313C1067.25 414.968 1067.52 413.738 1067.95 412.44C1073.9 409.5 1076.9 412.579 1079.73 411.74C1080.79 411.428 1081.8 409.76 1082.83 409.404C1085 408.657 1092.12 408.983 1094.99 408.575C1104.27 407.258 1113.74 405.281 1122.81 402.911Z"/>
	<path fill="#FEFEFE" transform="matrix(0.69375 0 0 0.693359 0 3.05176e-05)" d="M939.28 668.901C951.071 670.573 956.41 682.343 965.211 688.603C966.571 689.57 967.287 689.874 968.921 689.636C969.479 688.731 969.914 688.386 969.884 687.283C969.694 680.464 956.612 671.647 951.836 667.394C956.634 669.205 960.991 671.136 964.907 674.539C969.419 678.46 977.121 692.305 980.666 693.489C982.044 692.659 982.046 692.573 982.657 691.072C982.233 682.827 973.094 673.842 967.472 668.341C969.883 669.767 972.299 671.157 974.302 673.141C997.445 696.054 997.509 748.785 1000.03 780.078C1001.33 796.237 1003.73 811.901 1003.68 828.163C991.682 823.641 978.166 820.117 965.585 817.664C965.723 802.488 967.75 783.503 958.848 770.501C945.736 757.923 920.141 766.972 905.562 751.63C903.895 749.877 902.455 747.307 902.649 744.802C902.706 744.065 902.944 743.159 903.522 742.69C910.977 736.634 921.272 753.621 929.42 753.937C931.104 754.002 932.486 753.327 933.646 752.137C937.091 748.605 939.569 742.175 939.494 737.291C939.452 734.545 938.378 731.946 937.054 729.581C934.712 725.4 931.275 721.631 928.395 717.794C921.617 708.764 914.979 699.395 907.409 691.013C904.108 687.358 900.443 684.021 896.832 680.678C899.019 677.675 901.495 675.41 904.431 673.169C912.803 676.715 920.554 681.692 928.302 686.405C931.993 688.65 935.834 691.371 939.886 692.869C941.819 693.584 943.212 694.129 945.094 693.26L945.438 691.666C943.876 685.418 928.221 678.213 923.049 673.473L923.648 672.785C923.834 672.773 924.021 672.76 924.208 672.75C938.007 672.076 944.338 684.823 953.961 691.818C955.229 692.74 956.723 692.451 958.153 692.194C959.354 691.19 959.404 691.169 959.749 689.649C958.505 683.377 944.633 673.15 939.28 668.901Z"/>
	<path fill="#7358F9" transform="matrix(0.69375 0 0 0.693359 0 3.05176e-05)" d="M922.645 699.005C923.178 699.101 923.371 699.099 923.839 699.295C927.894 700.995 933.927 711.461 935.178 715.764C935.693 717.536 935.418 718.088 934.556 719.668C929.41 716.296 927.85 708.03 924.905 706.358C923.916 705.796 922.143 705.453 921.013 705.064C920.743 702.928 921.855 700.949 922.645 699.005Z"/>
	<path fill="#FEFEFE" transform="matrix(0.69375 0 0 0.693359 0 3.05176e-05)" d="M1195.93 412.913L1197.06 413.519C1197.74 419.6 1203.61 431.662 1202.16 436.821L1196.96 436.807C1164.55 436.873 1133.44 444.368 1101.51 448.802C1088.02 450.674 1074.42 451.44 1060.93 453.243C1047.93 454.981 1035.22 457.735 1022.47 460.669C1018.44 461.593 1009.52 462.494 1006.76 465.668C1006 466.536 1006.27 466.713 1006.34 467.783C1010.65 470.986 1024.97 465.979 1030.43 464.654C1041.02 462.089 1051.78 459.897 1062.61 458.653C1074.77 457.257 1087 456.77 1099.15 455.078C1134.66 450.132 1166.79 442.52 1203.08 442.495C1209.79 450.608 1218.8 514.319 1219.97 526.645Q1220.67 533.643 1221.08 540.665Q1221.49 547.686 1221.6 554.718Q1221.72 561.751 1221.54 568.782Q1221.36 575.813 1220.88 582.83Q1220.41 589.847 1219.64 596.839Q1218.88 603.83 1217.82 610.783Q1216.76 617.736 1215.41 624.638Q1214.06 631.541 1212.42 638.381C1211.02 644.343 1210.1 652.774 1206.19 657.513C1196.37 657.483 1186.55 658.878 1176.76 659.591C1170.97 660.952 1164.29 661.019 1158.35 661.504C1146.43 662.478 1134.46 663.312 1122.57 664.652C1106.44 666.471 1089.93 668.542 1073.95 671.39C1066.25 672.762 1058.67 674.863 1050.95 676.112C1044.4 677.173 1036.59 677.787 1030.79 673.94C1028.66 672.52 1026.95 670.533 1024.84 669.035L1024.42 668.739C1021.95 672.853 1001.83 690.067 997.627 691.667C994.671 689.904 993.399 683.784 992.308 680.529C999.422 667.496 1010.49 656.486 1016.97 643.249C1018.29 640.546 1019.29 637.657 1019.64 634.657C1020.22 629.611 1019.78 624.239 1019.7 619.151C1019.46 603.83 1018.32 589.123 1016.94 573.883C1014.19 543.611 1011.59 513.639 1006.16 483.675C1003.77 470.504 1000.73 456.864 996.286 444.233C1013.59 438.693 1031.25 436.233 1049.14 433.558C1067.84 430.762 1086.38 428.138 1105.14 425.804C1114.55 424.633 1123.87 422.869 1133.26 421.566L1195.93 412.913Z"/>
	<path fill="#7358F9" transform="matrix(0.69375 0 0 0.693359 0 3.05176e-05)" d="M1087.07 606.081C1087.9 605.93 1088.74 605.751 1089.58 605.685C1091.29 605.547 1091.57 605.806 1092.83 606.954C1093.06 607.818 1093.41 608.157 1092.86 608.966C1090.72 612.124 1063.09 616.14 1058.26 616.957C1057.04 617.034 1056.54 616.978 1055.5 616.168C1054.35 615.274 1054.33 614.22 1054.35 612.908C1057.78 609.682 1080.18 608.013 1086.54 606.238C1086.72 606.188 1086.89 606.134 1087.07 606.081Z"/>
	<path fill="#7358F9" transform="matrix(0.69375 0 0 0.693359 0 3.05176e-05)" d="M1154.27 493.557C1157.63 493.136 1160.87 493.014 1164.09 494.293C1167.14 495.508 1169.78 497.883 1171.01 500.965C1172.03 503.549 1172.04 506.533 1170.77 509.028C1169.26 512.008 1166.42 514.844 1163.23 515.894C1161.82 516.917 1159.58 517.381 1157.85 517.066C1154.59 516.471 1151.66 513.345 1149.98 510.625C1149.4 509.676 1148.9 508.854 1148.11 508.059C1147.88 507.835 1147.65 507.618 1147.42 507.397C1148.6 504.649 1148.99 502.072 1148.23 499.157C1150.37 497.542 1152.33 495.415 1154.27 493.557Z"/>
	<path fill="#FEFEFE" transform="matrix(0.69375 0 0 0.693359 0 3.05176e-05)" d="M1159.78 501.056L1162.43 501.071C1164.08 502.028 1164.45 502.193 1165.44 503.921C1165.54 505.389 1165.51 506.373 1164.78 507.691C1163.68 509.692 1162.26 510.28 1160.14 510.862C1158.81 511.071 1158.18 511.407 1156.92 510.79C1156.8 510.389 1156.74 510.214 1156.65 509.777C1156.22 507.722 1156.96 505.776 1158.09 504.076C1158.59 503.328 1159.04 502.665 1159.42 501.844L1159.78 501.056Z"/>
	<path fill="#7358F9" transform="matrix(0.69375 0 0 0.693359 0 3.05176e-05)" d="M1144.66 494.178C1145.13 494.159 1146.02 494.097 1146.47 494.194C1147.25 494.363 1147.78 494.751 1148.13 495.434C1149.56 498.206 1147.67 505.919 1146.62 508.827C1145.7 511.372 1144.15 514.376 1141.49 515.46C1138.61 516.635 1136.09 514.385 1133.58 513.235C1131.49 513.559 1130.73 514.827 1129.33 516.252C1128.21 517.396 1127.18 518.026 1125.52 517.988C1120.69 517.877 1116.26 513.133 1113.28 509.811C1114.05 505.293 1112.96 503.689 1116.32 499.671C1117.4 498.379 1118.74 497.531 1120.45 497.431C1127.08 497.044 1132.17 505.938 1136.7 509.59C1137.99 510.634 1138.76 510.853 1140.36 510.639C1144.09 506.822 1139.84 500.485 1144.66 494.178Z"/>
	<path fill="#FEFEFE" transform="matrix(0.69375 0 0 0.693359 0 3.05176e-05)" d="M1118.26 503.557C1120.88 503.03 1122.98 503.493 1125.39 504.661C1127.3 505.587 1128.46 506.454 1129.12 508.494C1128.66 510.257 1128.39 510.286 1127 511.363C1125.83 512.576 1125.8 512.47 1124.09 512.612C1122.64 512.006 1121.56 511.385 1120.48 510.198C1118.43 507.924 1118.1 506.606 1118.26 503.557Z"/>
	<path fill="#7358F9" transform="matrix(0.69375 0 0 0.693359 0 3.05176e-05)" d="M1180.43 596.083C1184.14 596.027 1189.15 595.46 1192.67 596.506C1194.23 596.968 1194.63 597.47 1195.38 598.849L1194.77 599.812C1191.32 601.531 1187.36 601.398 1183.6 601.504C1162.72 602.097 1142.56 605.067 1121.91 607.665C1119.42 608.593 1115.35 608.973 1112.69 608.839C1111.22 608.766 1110.48 608.759 1109.5 607.635L1110.09 606.178C1116.92 600.201 1169.13 596.525 1180.43 596.083Z"/>
	<path fill="#7358F9" transform="matrix(0.69375 0 0 0.693359 0 3.05176e-05)" d="M1143.41 618.585C1147.35 618.354 1151.46 617.919 1155.41 618.072C1157.32 618.146 1158.42 618.415 1159.65 619.819L1159.45 621.231C1158.16 622.716 1157.91 622.86 1155.98 623.169C1151.18 623.94 1146.05 623.914 1141.18 624.325C1133.78 624.949 1126.4 625.949 1119.04 626.845C1102.12 628.903 1085.68 632.119 1068.88 634.695C1068.81 634.732 1068.74 634.782 1068.67 634.808C1065.53 635.865 1060.5 637.026 1057.45 635.545C1056.11 634.897 1056.07 634.743 1055.62 633.416C1055.94 632.794 1055.91 632.745 1056.48 632.168C1061.3 627.238 1132.05 619.579 1143.41 618.585Z"/>
	<path fill="#7358F9" transform="matrix(0.69375 0 0 0.693359 0 3.05176e-05)" d="M1182.6 577.328C1184.43 577.153 1185.78 577.04 1187.55 577.598C1188.74 578.917 1188.86 578.966 1189.03 580.72C1187.23 582.683 1180.6 582.552 1177.76 582.818C1160.82 584.406 1144.3 587.199 1127.48 589.354C1116.14 590.806 1104.77 591.452 1093.43 593.041C1080.6 594.839 1067.97 597.779 1055.04 598.78C1052.43 599.003 1051.33 598.9 1049.05 597.602L1049.98 596.135Q1051.45 595.176 1053.07 594.492Q1054.69 593.809 1056.41 593.423C1059.47 592.703 1062.74 592.656 1065.85 592.089C1072.39 590.899 1078.88 589.35 1085.45 588.373C1097.96 586.513 1110.66 585.631 1123.22 584.103C1143.03 581.695 1162.61 578.1 1182.6 577.328Z"/>
	<path fill="#7358F9" transform="matrix(0.69375 0 0 0.693359 0 3.05176e-05)" d="M1178.96 556.698C1182.37 556.675 1188 555.882 1190.85 558.081L1190.69 559.442C1189.39 560.868 1188.06 561.856 1186.13 562.303C1181.84 563.301 1175.74 562.575 1171.23 562.844Q1155.73 563.821 1140.33 565.865C1124.94 567.965 1109.97 571.992 1094.76 574.978C1083.53 577.181 1072.04 578.524 1060.65 579.534C1058.36 580.32 1054.81 580.678 1052.43 580.238C1051.51 578.968 1051.28 578.94 1051.42 577.411C1054.71 573.702 1082.58 571.494 1089.49 570.332C1099.66 568.623 1109.59 565.527 1119.72 563.589C1139.4 559.826 1158.99 557.965 1178.96 556.698Z"/>
	<path fill="#7358F9" transform="matrix(0.69375 0 0 0.693359 0 3.05176e-05)" d="M1057.4 488.553C1062.58 487.973 1068.31 488.804 1073.13 490.794C1075.95 491.956 1079.14 493.893 1080.33 496.819C1080.33 496.956 1080.34 497.094 1080.32 497.229C1080 499.239 1056.52 526.773 1053.74 528.691C1053.2 526.816 1050.58 524.498 1049.01 523.367C1047.48 522.265 1044.95 521.401 1043.06 521.802C1041.97 522.033 1042.05 522.306 1041.44 523.152C1041.55 524.1 1041.69 524.877 1042.16 525.723C1044.39 529.745 1051.37 536.754 1055.78 538.037C1057.56 537.673 1058.07 537.182 1059.32 535.822C1062.89 531.921 1066.02 527.289 1069.29 523.106C1075.4 515.297 1081.76 507.783 1088.89 500.881C1090.03 501.074 1090.91 501.214 1091.84 501.962C1093.79 503.529 1095.73 506.224 1095.93 508.77C1097.15 515.613 1095.66 522.175 1092.5 528.311C1087.95 537.156 1079.06 544.514 1069.57 547.497C1061.71 549.968 1053.17 549.513 1045.83 545.638C1038.62 541.829 1032.44 534.795 1030.06 526.946C1027.87 519.724 1029 511.987 1032.67 505.445C1038.07 495.824 1047.18 491.453 1057.4 488.553Z"/>
</svg>
